<svg id="svg" version="1.1" xmlns="http://www.w3.org/2000/svg" xmlns:xlink="http://www.w3.org/1999/xlink" width="400" height="229.32592077831828" viewBox="0, 0, 400,229.32592077831828"><g id="svgg"><path id="path0" d="M136.418 107.008 C 128.152 109.011,124.281 118.905,128.920 126.173 C 133.718 133.691,145.289 133.739,150.116 126.261 C 156.372 116.570,147.634 104.288,136.418 107.008 M276.720 112.406 C 259.098 113.129,239.288 117.257,228.311 122.491 C 227.798 122.736,227.303 122.936,227.211 122.936 C 227.014 122.936,221.221 125.814,219.725 126.655 C 216.161 128.659,213.669 130.245,210.629 132.442 C 205.969 135.810,199.252 142.240,195.762 146.674 C 194.144 148.731,186.631 156.475,184.289 158.501 C 182.129 160.370,177.705 163.823,175.788 165.138 C 169.033 169.769,163.326 173.058,156.831 176.065 C 153.188 177.751,152.369 178.105,149.771 179.118 C 149.077 179.388,148.171 179.766,147.757 179.956 C 147.343 180.147,146.466 180.489,145.807 180.717 C 145.149 180.944,143.578 181.493,142.317 181.935 C 141.055 182.378,138.836 183.106,137.385 183.554 C 130.499 185.678,128.584 186.176,120.069 188.062 C 117.455 188.641,111.910 189.667,110.092 189.909 C 109.019 190.051,107.729 190.266,107.225 190.386 C 106.383 190.586,99.583 191.443,94.610 191.977 C 78.343 193.721,52.556 193.724,34.060 191.984 C 29.036 191.511,20.674 190.595,19.266 190.363 C 18.446 190.228,15.969 189.870,13.761 189.568 C 8.305 188.820,4.118 188.163,2.107 187.739 C 1.184 187.544,0.332 187.385,0.214 187.385 C 0.083 187.385,0.000 195.512,0.000 208.372 L 0.000 229.358 200.000 229.358 L 400.000 229.358 400.000 181.340 L 400.000 133.323 394.323 131.474 C 370.263 123.635,345.753 117.858,324.541 115.024 C 322.208 114.713,320.073 114.404,319.798 114.339 C 319.275 114.214,309.276 113.208,304.931 112.843 C 297.706 112.236,285.464 112.046,276.720 112.406 M165.711 124.513 C 160.296 125.948,158.469 132.561,162.396 136.509 C 166.881 141.017,174.438 137.817,174.407 131.422 C 174.385 126.928,169.936 123.394,165.711 124.513 M148.911 139.004 C 142.460 140.989,141.700 149.694,147.740 152.405 C 154.730 155.542,160.967 146.904,155.889 141.120 C 154.400 139.425,150.947 138.377,148.911 139.004 " stroke="none" fill="#fbfbfb" fill-rule="evenodd"></path><path id="path1" d="M0.000 93.574 L 0.000 187.147 0.516 187.263 C 6.662 188.637,25.184 190.996,38.303 192.076 C 53.362 193.315,77.382 193.368,89.450 192.189 C 98.431 191.311,101.348 190.984,105.619 190.376 C 118.640 188.521,132.932 185.144,142.546 181.650 C 143.177 181.421,144.467 180.953,145.413 180.609 C 147.362 179.902,154.345 177.041,155.390 176.522 C 155.768 176.334,157.162 175.661,158.486 175.026 C 161.029 173.808,164.913 171.777,166.419 170.879 C 179.287 163.200,188.287 155.589,196.674 145.294 C 204.387 135.828,219.747 124.759,229.128 121.907 C 229.444 121.811,229.805 121.653,229.931 121.555 C 231.958 119.982,249.281 115.309,257.526 114.111 C 258.748 113.934,260.780 113.632,262.041 113.440 C 264.503 113.066,270.808 112.522,277.294 112.123 C 285.187 111.638,302.963 112.227,312.615 113.294 C 317.797 113.866,324.546 114.703,325.573 114.900 C 326.204 115.022,327.597 115.236,328.670 115.377 C 334.145 116.097,346.310 118.399,354.817 120.327 C 358.842 121.239,369.536 123.849,370.183 124.077 C 370.499 124.189,372.357 124.705,374.312 125.225 C 376.267 125.745,378.693 126.416,379.702 126.716 C 380.711 127.015,382.620 127.581,383.945 127.973 C 387.622 129.061,391.219 130.193,395.715 131.678 C 397.963 132.420,399.847 133.028,399.901 133.028 C 399.956 133.028,400.000 103.096,400.000 66.514 L 400.000 0.000 200.000 0.000 L 0.000 0.000 0.000 93.574 M144.288 107.308 C 151.672 110.415,154.628 118.942,150.669 125.720 C 144.853 135.679,130.009 133.575,127.081 122.377 C 124.467 112.375,134.808 103.319,144.288 107.308 M170.033 124.679 C 174.704 126.271,176.086 132.951,172.506 136.640 C 169.762 139.467,164.994 139.481,162.183 136.670 C 156.678 131.166,162.586 122.142,170.033 124.679 M153.293 139.130 C 156.719 140.297,158.816 144.602,157.646 148.067 C 154.947 156.061,143.468 154.376,143.468 145.986 C 143.468 140.774,148.274 137.420,153.293 139.130 " stroke="none" fill="#649ca4" fill-rule="evenodd"></path><path id="path2" d="M138.938 106.588 C 139.350 106.639,139.969 106.638,140.314 106.586 C 140.658 106.534,140.321 106.492,139.564 106.493 C 138.807 106.494,138.525 106.537,138.938 106.588 M130.492 110.264 L 129.702 111.124 130.562 110.333 C 131.362 109.598,131.527 109.404,131.352 109.404 C 131.314 109.404,130.927 109.791,130.492 110.264 M147.936 109.705 C 147.936 109.744,148.271 110.080,148.681 110.450 L 149.427 111.124 148.753 110.378 C 148.125 109.684,147.936 109.528,147.936 109.705 M278.498 112.323 C 278.971 112.373,279.745 112.373,280.218 112.323 C 280.691 112.274,280.304 112.233,279.358 112.233 C 278.412 112.233,278.025 112.274,278.498 112.323 M293.177 112.323 C 293.650 112.373,294.424 112.373,294.897 112.323 C 295.370 112.274,294.983 112.233,294.037 112.233 C 293.091 112.233,292.704 112.274,293.177 112.323 M299.599 112.543 C 299.819 112.601,300.181 112.601,300.401 112.543 C 300.622 112.486,300.442 112.439,300.000 112.439 C 299.558 112.439,299.378 112.486,299.599 112.543 M265.312 113.236 C 265.598 113.290,266.010 113.288,266.230 113.231 C 266.449 113.174,266.216 113.129,265.711 113.131 C 265.206 113.134,265.027 113.181,265.312 113.236 M308.890 113.236 C 309.176 113.290,309.588 113.288,309.808 113.231 C 310.027 113.174,309.794 113.129,309.289 113.131 C 308.784 113.134,308.605 113.181,308.890 113.236 M162.144 126.548 L 161.353 127.408 162.213 126.618 C 162.686 126.183,163.073 125.796,163.073 125.758 C 163.073 125.583,162.879 125.748,162.144 126.548 M130.505 128.326 C 130.933 128.767,131.334 129.128,131.397 129.128 C 131.460 129.128,131.162 128.767,130.734 128.326 C 130.306 127.884,129.904 127.523,129.841 127.523 C 129.778 127.523,130.077 127.884,130.505 128.326 M148.495 128.268 L 147.821 129.014 148.567 128.340 C 148.976 127.970,149.312 127.634,149.312 127.595 C 149.312 127.418,149.123 127.574,148.495 128.268 M138.699 132.046 C 139.106 132.097,139.829 132.098,140.305 132.048 C 140.780 131.998,140.447 131.957,139.564 131.956 C 138.681 131.955,138.292 131.996,138.699 132.046 M172.235 136.640 L 171.445 137.500 172.305 136.710 C 173.106 135.974,173.271 135.780,173.095 135.780 C 173.057 135.780,172.670 136.167,172.235 136.640 M201.601 140.080 L 199.197 142.546 201.663 140.142 C 203.019 138.819,204.128 137.710,204.128 137.676 C 204.128 137.510,203.834 137.790,201.601 140.080 M192.306 150.516 L 191.399 151.491 192.374 150.584 C 193.280 149.741,193.454 149.541,193.280 149.541 C 193.243 149.541,192.804 149.980,192.306 150.516 M185.880 156.938 L 185.206 157.683 185.952 157.010 C 186.362 156.639,186.697 156.304,186.697 156.264 C 186.697 156.087,186.508 156.243,185.880 156.938 M32.743 191.905 C 33.029 191.960,33.442 191.958,33.661 191.901 C 33.880 191.843,33.647 191.798,33.142 191.801 C 32.638 191.804,32.458 191.850,32.743 191.905 M94.899 191.905 C 95.185 191.960,95.598 191.958,95.817 191.901 C 96.036 191.843,95.803 191.798,95.298 191.801 C 94.794 191.804,94.614 191.850,94.899 191.905 M35.496 192.135 C 35.781 192.190,36.194 192.187,36.413 192.130 C 36.633 192.073,36.399 192.028,35.894 192.030 C 35.390 192.033,35.210 192.080,35.496 192.135 M46.044 192.822 C 46.327 192.877,46.792 192.877,47.076 192.822 C 47.360 192.768,47.127 192.723,46.560 192.723 C 45.992 192.723,45.760 192.768,46.044 192.822 M82.626 192.819 C 82.847 192.876,83.208 192.876,83.429 192.819 C 83.650 192.761,83.469 192.714,83.028 192.714 C 82.586 192.714,82.405 192.761,82.626 192.819 M49.828 193.057 C 50.301 193.106,51.075 193.106,51.548 193.057 C 52.021 193.008,51.634 192.967,50.688 192.967 C 49.742 192.967,49.355 193.008,49.828 193.057 M78.378 193.055 C 78.785 193.106,79.508 193.107,79.983 193.057 C 80.459 193.008,80.126 192.966,79.243 192.965 C 78.360 192.964,77.971 193.005,78.378 193.055 M57.179 193.290 C 58.289 193.332,60.043 193.332,61.078 193.290 C 62.112 193.247,61.204 193.213,59.060 193.213 C 56.915 193.213,56.069 193.248,57.179 193.290 M69.438 193.290 C 70.479 193.332,72.182 193.332,73.222 193.290 C 74.263 193.247,73.412 193.213,71.330 193.213 C 69.249 193.213,68.397 193.247,69.438 193.290 " stroke="none" fill="#bcd4d4" fill-rule="evenodd"></path><path id="path3" d="M286.070 112.091 C 286.418 112.144,286.934 112.142,287.216 112.088 C 287.499 112.034,287.213 111.990,286.583 111.992 C 285.952 111.994,285.721 112.038,286.070 112.091 M64.057 193.289 C 64.786 193.335,65.922 193.334,66.579 193.288 C 67.237 193.242,66.640 193.205,65.252 193.205 C 63.865 193.206,63.327 193.243,64.057 193.289 " stroke="none" fill="#acccd4" fill-rule="evenodd"></path><path id="path4" d="M280.572 112.097 C 281.556 112.140,283.104 112.140,284.013 112.097 C 284.922 112.053,284.117 112.018,282.225 112.018 C 280.333 112.019,279.589 112.054,280.572 112.097 M289.403 112.097 C 290.450 112.140,292.101 112.140,293.073 112.097 C 294.044 112.054,293.188 112.019,291.170 112.019 C 289.151 112.020,288.356 112.055,289.403 112.097 M275.172 112.322 C 275.582 112.373,276.253 112.373,276.663 112.322 C 277.073 112.271,276.737 112.229,275.917 112.229 C 275.097 112.229,274.762 112.271,275.172 112.322 M297.190 112.322 C 297.600 112.373,298.271 112.373,298.681 112.322 C 299.091 112.271,298.756 112.229,297.936 112.229 C 297.116 112.229,296.780 112.271,297.190 112.322 M301.204 112.543 C 301.425 112.601,301.786 112.601,302.007 112.543 C 302.228 112.486,302.047 112.439,301.606 112.439 C 301.164 112.439,300.983 112.486,301.204 112.543 M312.789 113.465 C 313.075 113.520,313.488 113.518,313.707 113.460 C 313.926 113.403,313.693 113.358,313.188 113.361 C 312.683 113.363,312.504 113.410,312.789 113.465 M126.684 119.151 C 126.685 120.161,126.725 120.545,126.774 120.005 C 126.822 119.466,126.822 118.640,126.772 118.171 C 126.723 117.701,126.683 118.142,126.684 119.151 M152.356 119.266 C 152.356 119.834,152.401 120.066,152.455 119.782 C 152.510 119.498,152.510 119.034,152.455 118.750 C 152.401 118.466,152.356 118.698,152.356 119.266 M201.253 140.195 L 200.115 141.399 201.319 140.261 C 202.438 139.203,202.628 138.991,202.457 138.991 C 202.421 138.991,201.879 139.533,201.253 140.195 M157.872 145.872 C 157.872 146.692,157.913 147.027,157.964 146.617 C 158.015 146.207,158.015 145.536,157.964 145.126 C 157.913 144.716,157.872 145.052,157.872 145.872 M192.531 150.057 L 191.858 150.803 192.603 150.129 C 193.013 149.759,193.349 149.423,193.349 149.384 C 193.349 149.207,193.159 149.363,192.531 150.057 M189.220 153.555 C 188.663 154.123,188.259 154.587,188.322 154.587 C 188.385 154.587,188.892 154.123,189.450 153.555 C 190.007 152.987,190.411 152.523,190.348 152.523 C 190.285 152.523,189.777 152.987,189.220 153.555 M185.651 156.938 L 184.977 157.683 185.722 157.010 C 186.132 156.639,186.468 156.304,186.468 156.264 C 186.468 156.087,186.279 156.243,185.651 156.938 M23.222 190.754 C 23.443 190.812,23.804 190.812,24.025 190.754 C 24.246 190.697,24.065 190.650,23.624 190.650 C 23.182 190.650,23.002 190.697,23.222 190.754 M25.287 190.984 C 25.507 191.041,25.869 191.041,26.089 190.984 C 26.310 190.926,26.130 190.879,25.688 190.879 C 25.247 190.879,25.066 190.926,25.287 190.984 M34.690 191.901 C 34.911 191.959,35.272 191.959,35.493 191.901 C 35.714 191.844,35.533 191.796,35.092 191.796 C 34.650 191.796,34.470 191.844,34.690 191.901 M37.328 192.134 C 37.612 192.189,38.076 192.189,38.360 192.134 C 38.644 192.080,38.412 192.035,37.844 192.035 C 37.276 192.035,37.044 192.080,37.328 192.134 M90.542 192.135 C 90.827 192.190,91.240 192.187,91.459 192.130 C 91.678 192.073,91.445 192.028,90.940 192.030 C 90.436 192.033,90.256 192.080,90.542 192.135 M40.083 192.364 C 40.368 192.419,40.781 192.417,41.000 192.359 C 41.220 192.302,40.986 192.257,40.482 192.260 C 39.977 192.262,39.798 192.309,40.083 192.364 M47.993 192.819 C 48.214 192.876,48.575 192.876,48.796 192.819 C 49.017 192.761,48.836 192.714,48.394 192.714 C 47.953 192.714,47.772 192.761,47.993 192.819 M81.138 192.823 C 81.423 192.878,81.836 192.876,82.055 192.818 C 82.275 192.761,82.041 192.716,81.537 192.718 C 81.032 192.721,80.853 192.768,81.138 192.823 M53.956 193.057 C 54.429 193.106,55.204 193.106,55.677 193.057 C 56.150 193.008,55.763 192.967,54.817 192.967 C 53.870 192.967,53.483 193.008,53.956 193.057 M74.490 193.058 C 75.029 193.107,75.855 193.106,76.325 193.057 C 76.795 193.007,76.353 192.968,75.344 192.969 C 74.335 192.969,73.951 193.010,74.490 193.058 " stroke="none" fill="#a4c4cc" fill-rule="evenodd"></path></g></svg>