<svg id="svg" version="1.1" xmlns="http://www.w3.org/2000/svg" xmlns:xlink="http://www.w3.org/1999/xlink" width="400" height="243.12630844382417" viewBox="0, 0, 400,243.12630844382417"><g id="svgg"><path id="path0" d="M0.003 97.325 L 0.006 194.650 2.130 196.231 C 5.464 198.712,11.740 202.922,14.711 204.670 C 31.083 214.304,47.035 220.168,64.859 223.107 C 113.620 231.146,156.863 215.181,188.364 177.508 C 195.878 168.521,201.845 158.867,206.828 147.636 C 214.149 131.133,230.658 123.548,253.617 126.137 C 276.855 128.758,291.511 126.498,299.096 119.125 C 304.409 113.960,307.764 100.886,306.047 92.036 C 303.272 77.731,289.146 67.956,264.802 63.496 C 257.409 62.142,253.048 61.288,247.295 60.070 C 240.074 58.541,233.913 57.166,233.707 57.039 C 233.619 56.985,231.908 56.547,229.905 56.066 C 195.385 47.780,168.594 35.360,153.594 20.689 C 147.230 14.465,141.640 6.338,140.034 0.978 L 139.741 -0.000 69.870 -0.000 L 0.000 0.000 0.003 97.325 M76.474 96.268 C 78.097 97.188,78.015 100.174,76.343 101.039 C 75.096 101.683,73.026 101.514,72.213 100.700 C 69.451 97.939,72.970 94.279,76.474 96.268 M60.548 96.673 C 64.487 97.569,67.128 100.353,67.742 104.255 L 67.904 105.289 64.861 105.289 L 61.817 105.289 61.651 104.377 C 60.956 100.561,54.650 99.712,52.917 103.201 C 51.865 105.318,53.223 106.748,57.798 108.343 C 65.896 111.167,68.677 114.320,67.608 119.470 C 65.647 128.914,46.044 127.332,45.862 117.715 L 45.836 116.353 48.735 116.353 L 51.635 116.353 51.912 117.568 C 53.010 122.378,62.310 122.398,61.680 117.589 C 61.422 115.617,60.476 114.895,56.107 113.332 C 49.038 110.805,46.545 108.410,46.596 104.195 C 46.663 98.627,53.332 95.032,60.548 96.673 M143.514 107.052 L 143.587 117.568 144.195 118.653 C 146.034 121.935,151.233 121.945,152.888 118.670 C 153.430 117.597,153.435 117.489,153.435 107.187 L 153.435 96.787 153.982 96.651 C 154.283 96.576,155.623 96.546,156.960 96.585 L 159.392 96.657 159.392 107.733 L 159.392 118.810 158.563 120.443 C 154.637 128.176,140.603 127.511,138.121 119.475 C 137.625 117.867,137.325 97.164,137.791 96.697 C 137.880 96.608,139.188 96.535,140.697 96.535 L 143.441 96.535 143.514 107.052 M192.952 96.785 C 193.104 97.031,192.689 111.519,192.431 114.954 L 192.299 116.717 189.923 116.717 L 187.548 116.717 187.394 113.252 C 187.107 106.808,186.918 97.318,187.069 96.925 C 187.246 96.463,192.674 96.334,192.952 96.785 M92.809 104.197 C 93.320 104.410,94.032 104.866,94.391 105.210 L 95.043 105.834 95.208 104.954 L 95.373 104.073 98.021 104.073 L 100.669 104.073 100.669 115.111 C 100.669 127.913,100.619 128.283,98.596 130.533 C 94.917 134.624,86.736 134.922,83.072 131.097 L 82.389 130.385 83.647 128.656 L 84.904 126.927 85.907 127.785 C 89.596 130.943,94.822 129.125,94.831 124.681 C 94.833 123.854,94.850 123.853,93.526 124.747 C 86.643 129.392,79.342 120.952,81.489 110.833 C 82.653 105.347,88.024 102.198,92.809 104.197 M119.438 104.147 C 122.799 105.551,123.157 106.797,123.159 117.082 L 123.161 125.350 120.319 125.418 L 117.478 125.486 117.402 117.758 C 117.347 112.276,117.240 109.881,117.031 109.517 C 116.190 108.052,112.643 107.944,111.327 109.344 C 110.763 109.944,110.759 109.995,110.638 117.648 L 110.517 125.350 107.660 125.418 L 104.802 125.487 104.802 114.772 L 104.802 104.057 107.538 104.126 L 110.274 104.195 110.395 105.256 L 110.517 106.318 110.987 105.796 C 112.743 103.844,116.812 103.050,119.438 104.147 M178.413 104.457 C 183.741 107.049,184.952 118.267,180.450 123.330 C 177.796 126.315,173.008 126.720,170.274 124.190 L 169.726 123.684 169.726 128.590 L 169.726 133.495 166.809 133.495 L 163.891 133.495 163.891 118.776 L 163.891 104.057 166.626 104.126 L 169.362 104.195 169.440 105.153 C 169.483 105.681,169.593 106.009,169.685 105.883 C 171.297 103.671,175.415 102.998,178.413 104.457 M77.325 114.780 L 77.325 125.487 74.468 125.418 L 71.611 125.350 71.548 114.711 L 71.484 104.073 74.405 104.073 L 77.325 104.073 77.325 114.780 M89.870 108.561 C 86.326 109.845,85.761 118.600,89.091 120.631 C 90.568 121.531,93.565 121.094,94.436 119.850 C 95.011 119.029,95.025 110.535,94.453 109.718 C 93.631 108.545,91.442 107.992,89.870 108.561 M172.280 108.425 C 169.867 109.032,169.726 109.382,169.726 114.798 L 169.726 119.336 170.700 120.215 C 172.596 121.928,175.359 121.390,176.603 119.065 C 177.453 117.474,177.410 111.961,176.535 110.417 C 175.544 108.669,174.065 107.976,172.280 108.425 M191.048 119.894 C 194.415 121.166,193.691 125.714,190.121 125.714 C 188.011 125.714,186.743 124.598,186.751 122.748 C 186.761 120.679,189.069 119.146,191.048 119.894 M323.971 129.311 C 315.493 132.338,316.432 144.412,325.291 146.266 C 330.843 147.428,336.376 142.358,335.687 136.741 C 335.011 131.230,329.098 127.481,323.971 129.311 M238.419 135.768 C 230.012 137.967,227.015 148.265,233.032 154.279 C 239.993 161.236,251.937 156.400,251.911 146.636 C 251.892 139.552,245.044 134.035,238.419 135.768 M300.508 146.887 C 286.436 148.953,280.795 166.913,291.043 177.021 C 302.239 188.064,321.061 180.214,321.071 164.498 C 321.078 153.405,311.571 145.263,300.508 146.887 " stroke="none" fill="#fbfbfb" fill-rule="evenodd"></path><path id="path1" d="M140.463 1.505 C 145.170 13.089,156.206 24.872,169.814 32.843 C 170.598 33.302,171.582 33.883,172.002 34.134 C 186.860 43.004,207.935 50.618,236.717 57.513 C 242.389 58.872,254.360 61.352,261.277 62.601 C 288.010 67.428,301.453 75.605,305.675 89.605 C 308.574 99.218,305.347 113.404,298.843 119.635 C 291.509 126.662,275.217 129.135,254.103 126.426 C 231.639 123.543,212.938 131.977,207.091 147.627 C 206.761 148.511,206.293 149.605,206.052 150.058 C 205.811 150.511,205.381 151.429,205.096 152.097 C 203.872 154.969,198.986 163.375,196.261 167.295 C 195.564 168.298,194.540 169.775,193.987 170.578 C 193.021 171.977,191.893 173.452,188.962 177.143 C 177.460 191.628,161.530 204.362,143.951 213.122 C 137.331 216.421,126.317 220.319,119.202 221.881 C 117.635 222.225,115.696 222.669,114.894 222.868 C 113.631 223.180,110.569 223.643,102.857 224.688 C 89.929 226.440,64.175 224.493,53.009 220.919 C 52.407 220.726,51.004 220.341,49.891 220.062 C 41.584 217.981,27.126 212.083,19.331 207.594 C 18.395 207.055,16.863 206.174,15.927 205.637 C 12.519 203.679,8.631 201.161,5.048 198.591 C 3.408 197.415,1.602 196.124,1.033 195.723 L 0.000 194.992 0.000 219.076 L 0.000 243.161 200.000 243.161 L 400.000 243.161 400.000 121.581 L 400.000 0.000 269.926 -0.000 L 139.852 -0.000 140.463 1.505 M73.040 96.142 C 71.076 97.031,70.870 99.841,72.700 100.788 C 74.755 101.850,77.219 100.834,77.490 98.812 C 77.764 96.768,75.138 95.192,73.040 96.142 M53.982 96.887 C 48.837 97.984,46.032 101.571,46.931 105.903 C 47.592 109.084,50.774 111.437,57.131 113.446 C 61.256 114.749,62.885 116.914,61.594 119.379 C 59.701 122.993,52.164 121.529,51.616 117.440 L 51.486 116.474 48.688 116.474 L 45.890 116.474 46.032 117.675 C 47.075 126.482,63.998 128.756,67.085 120.504 C 69.004 115.376,65.639 110.951,58.116 108.707 C 54.253 107.554,52.526 106.172,52.524 104.232 C 52.519 99.769,60.664 99.487,61.778 103.911 L 62.064 105.046 64.862 105.046 L 67.661 105.046 67.503 104.012 C 66.685 98.663,60.628 95.471,53.982 96.887 M137.631 106.565 C 137.632 117.083,137.742 118.298,138.902 120.608 C 141.952 126.680,153.407 127.335,157.587 121.677 C 159.207 119.484,159.271 118.943,159.271 107.305 L 159.271 97.021 156.596 97.021 L 153.921 97.021 153.920 106.322 C 153.918 116.245,153.790 117.876,152.904 119.251 C 151.158 121.961,145.830 121.905,144.122 119.158 C 143.595 118.311,143.586 118.138,143.516 107.660 L 143.446 97.021 140.537 97.021 L 137.629 97.021 137.631 106.565 M187.100 98.541 C 187.254 100.133,187.714 112.332,187.718 114.954 L 187.720 116.474 189.995 116.474 L 192.270 116.474 192.430 110.456 C 192.518 107.146,192.660 102.769,192.744 100.729 L 192.897 97.021 189.924 97.021 L 186.952 97.021 187.100 98.541 M86.943 104.371 C 79.465 106.974,79.323 122.209,86.751 124.988 C 89.273 125.931,93.101 125.397,94.313 123.932 C 95.100 122.980,95.387 124.985,94.699 126.634 C 93.340 129.891,89.566 130.596,86.136 128.234 C 85.429 127.747,84.821 127.391,84.786 127.443 C 84.751 127.495,84.243 128.187,83.657 128.981 L 82.591 130.424 83.620 131.336 C 87.279 134.584,95.240 134.156,98.330 130.545 C 100.375 128.156,100.295 128.731,100.376 115.805 L 100.448 104.316 98.005 104.316 C 95.635 104.316,95.562 104.332,95.559 104.863 C 95.551 106.011,95.198 106.137,94.190 105.354 C 92.155 103.773,89.641 103.432,86.943 104.371 M113.704 104.430 C 112.917 104.754,111.856 105.353,111.348 105.762 C 110.210 106.676,110.152 106.678,110.152 105.795 C 110.152 104.362,110.069 104.316,107.451 104.316 L 105.046 104.316 105.046 114.772 L 105.046 125.228 107.720 125.228 L 110.395 125.228 110.395 117.597 L 110.395 109.965 111.353 109.100 C 112.409 108.146,113.561 107.819,114.950 108.080 C 117.551 108.568,117.678 109.029,117.685 117.994 L 117.690 125.228 120.379 125.228 L 123.069 125.228 122.993 116.900 L 122.918 108.571 122.230 107.171 C 120.767 104.192,117.129 103.022,113.704 104.430 M172.573 104.203 C 171.560 104.575,170.258 105.403,169.794 105.972 C 169.467 106.373,169.424 106.309,169.134 104.985 L 168.988 104.316 166.561 104.316 L 164.134 104.316 164.134 118.914 L 164.134 133.512 166.748 133.443 L 169.362 133.374 169.428 128.450 C 169.494 123.473,169.557 123.154,170.314 123.990 C 173.352 127.347,180.041 125.351,181.899 120.532 C 185.489 111.223,179.936 101.500,172.573 104.203 M71.733 114.772 L 71.733 125.228 74.529 125.228 L 77.325 125.228 77.325 114.772 L 77.325 104.316 74.529 104.316 L 71.733 104.316 71.733 114.772 M92.630 108.203 C 93.089 108.334,93.827 108.793,94.270 109.223 L 95.076 110.004 95.076 114.644 C 95.076 119.770,95.045 119.894,93.495 120.851 C 90.094 122.953,87.036 120.414,86.855 115.338 C 86.657 109.828,88.851 107.119,92.630 108.203 M175.494 108.692 C 177.329 110.135,178.078 114.423,177.131 118.064 C 176.323 121.170,173.574 122.416,170.994 120.847 C 169.582 119.988,169.445 119.386,169.529 114.406 L 169.605 109.939 170.325 109.188 C 171.582 107.877,174.146 107.631,175.494 108.692 M188.854 120.186 C 187.728 120.472,186.993 121.524,186.992 122.853 C 186.989 125.977,192.255 126.418,192.916 123.349 C 193.395 121.121,191.372 119.545,188.854 120.186 M329.657 129.026 C 333.654 130.380,335.990 133.900,335.755 138.215 C 335.252 147.454,322.821 149.904,318.740 141.569 C 315.290 134.523,322.256 126.520,329.657 129.026 M243.111 135.583 C 256.425 138.319,254.438 157.690,240.843 157.690 L 237.893 157.690 236.001 156.717 C 225.367 151.253,228.771 136.011,240.801 135.226 C 241.040 135.210,242.080 135.371,243.111 135.583 M308.354 147.176 C 321.126 150.664,325.701 166.990,316.608 176.628 C 307.585 186.191,292.111 183.506,286.925 171.477 C 280.959 157.639,293.713 143.176,308.354 147.176 " stroke="none" fill="#649ca4" fill-rule="evenodd"></path><path id="path2" d="M151.611 18.723 C 152.133 19.258,152.615 19.696,152.682 19.696 C 152.749 19.696,152.376 19.258,151.854 18.723 C 151.332 18.188,150.850 17.751,150.783 17.751 C 150.716 17.751,151.089 18.188,151.611 18.723 M164.005 118.784 C 164.005 126.809,164.035 130.056,164.073 126.001 C 164.110 121.946,164.110 115.380,164.073 111.411 C 164.035 107.442,164.005 110.760,164.005 118.784 M83.997 106.079 L 83.283 106.869 84.073 106.155 C 84.810 105.489,84.975 105.289,84.787 105.289 C 84.745 105.289,84.390 105.644,83.997 106.079 M73.261 125.408 C 74.035 125.456,75.239 125.456,75.936 125.407 C 76.633 125.358,76.000 125.318,74.529 125.319 C 73.058 125.319,72.487 125.360,73.261 125.408 M106.331 125.408 C 107.105 125.456,108.309 125.456,109.006 125.407 C 109.703 125.358,109.070 125.318,107.599 125.319 C 106.128 125.319,105.557 125.360,106.331 125.408 M118.967 125.408 C 119.736 125.456,120.994 125.456,121.763 125.408 C 122.532 125.359,121.903 125.320,120.365 125.320 C 118.827 125.320,118.198 125.359,118.967 125.408 M266.326 127.348 C 266.695 127.404,267.242 127.402,267.541 127.344 C 267.840 127.287,267.538 127.241,266.869 127.243 C 266.201 127.245,265.956 127.292,266.326 127.348 M273.255 127.345 C 273.558 127.403,273.995 127.401,274.228 127.340 C 274.460 127.279,274.213 127.232,273.678 127.235 C 273.143 127.237,272.953 127.287,273.255 127.345 M232.219 153.754 C 232.219 153.796,232.574 154.151,233.009 154.544 L 233.799 155.258 233.085 154.468 C 232.419 153.731,232.219 153.566,232.219 153.754 M87.720 225.346 C 88.422 225.396,89.571 225.396,90.274 225.346 C 90.976 225.297,90.401 225.257,88.997 225.257 C 87.593 225.257,87.018 225.297,87.720 225.346 " stroke="none" fill="#abccd3" fill-rule="evenodd"></path><path id="path3" d="M155.380 22.204 C 155.380 22.246,155.736 22.601,156.170 22.994 L 156.960 23.708 156.246 22.918 C 155.581 22.181,155.380 22.016,155.380 22.204 M296.657 76.186 C 296.657 76.227,297.012 76.583,297.447 76.976 L 298.237 77.690 297.523 76.900 C 296.857 76.163,296.657 75.998,296.657 76.186 M306.716 97.508 C 306.716 98.912,306.756 99.486,306.805 98.784 C 306.855 98.082,306.855 96.933,306.805 96.231 C 306.756 95.529,306.716 96.103,306.716 97.508 M56.842 96.464 C 57.144 96.522,57.582 96.520,57.814 96.459 C 58.047 96.398,57.799 96.350,57.264 96.353 C 56.729 96.356,56.539 96.406,56.842 96.464 M139.027 96.958 C 139.863 97.006,141.231 97.006,142.067 96.958 C 142.903 96.911,142.219 96.872,140.547 96.872 C 138.875 96.872,138.191 96.911,139.027 96.958 M153.792 97.075 C 153.726 97.247,153.702 101.654,153.739 106.870 L 153.805 116.353 153.863 106.687 L 153.921 97.021 156.593 97.021 L 159.265 97.021 159.333 106.930 L 159.400 116.839 159.396 106.869 L 159.392 96.900 156.652 96.831 C 154.593 96.779,153.882 96.840,153.792 97.075 M188.389 96.958 C 189.225 97.006,190.593 97.006,191.429 96.958 C 192.264 96.911,191.581 96.872,189.909 96.872 C 188.237 96.872,187.553 96.911,188.389 96.958 M187.066 99.818 C 187.068 100.620,187.113 100.919,187.167 100.482 C 187.221 100.045,187.220 99.388,187.165 99.023 C 187.109 98.658,187.065 99.015,187.066 99.818 M56.599 100.841 C 56.901 100.899,57.339 100.897,57.571 100.836 C 57.804 100.775,57.556 100.727,57.021 100.730 C 56.486 100.733,56.296 100.783,56.599 100.841 M73.985 101.330 C 74.355 101.385,74.902 101.384,75.201 101.326 C 75.500 101.268,75.198 101.223,74.529 101.225 C 73.860 101.226,73.615 101.274,73.985 101.330 M192.661 102.857 C 192.661 103.726,192.706 104.082,192.759 103.647 C 192.813 103.213,192.813 102.502,192.759 102.067 C 192.706 101.632,192.661 101.988,192.661 102.857 M187.325 105.897 C 187.326 107.368,187.366 107.938,187.414 107.164 C 187.462 106.390,187.462 105.187,187.413 104.490 C 187.364 103.792,187.324 104.426,187.325 105.897 M73.140 104.253 C 73.981 104.301,75.294 104.300,76.058 104.252 C 76.822 104.204,76.134 104.165,74.529 104.166 C 72.924 104.166,72.299 104.206,73.140 104.253 M96.717 104.252 C 97.419 104.301,98.568 104.301,99.271 104.252 C 99.973 104.203,99.398 104.163,97.994 104.163 C 96.590 104.163,96.015 104.203,96.717 104.252 M104.917 104.368 C 104.851 104.540,104.827 109.331,104.863 115.015 L 104.929 125.350 104.988 114.833 L 105.046 104.316 107.457 104.316 C 108.861 104.316,109.920 104.420,109.992 104.565 C 110.060 104.702,110.087 104.675,110.053 104.505 C 109.963 104.057,105.086 103.928,104.917 104.368 M166.435 104.250 C 167.966 104.304,168.935 104.443,169.068 104.629 C 169.217 104.840,169.249 104.819,169.178 104.559 C 169.098 104.266,168.583 104.192,166.546 104.180 L 164.012 104.166 166.435 104.250 M177.718 104.447 C 178.168 104.643,178.606 104.799,178.691 104.794 C 179.007 104.776,177.615 104.090,177.264 104.091 C 177.064 104.092,177.268 104.252,177.718 104.447 M63.283 105.225 C 64.052 105.274,65.310 105.274,66.079 105.225 C 66.848 105.177,66.219 105.138,64.681 105.138 C 63.143 105.138,62.514 105.177,63.283 105.225 M90.884 108.136 C 91.187 108.194,91.624 108.191,91.857 108.131 C 92.089 108.070,91.842 108.022,91.307 108.025 C 90.772 108.028,90.582 108.077,90.884 108.136 M113.495 108.135 C 113.796 108.193,114.289 108.193,114.590 108.135 C 114.891 108.077,114.644 108.030,114.043 108.030 C 113.441 108.030,113.195 108.077,113.495 108.135 M172.830 108.136 C 173.132 108.194,173.570 108.191,173.802 108.131 C 174.035 108.070,173.787 108.022,173.252 108.025 C 172.717 108.028,172.527 108.077,172.830 108.136 M88.374 109.240 L 87.660 110.030 88.450 109.316 C 88.884 108.923,89.240 108.568,89.240 108.526 C 89.240 108.338,89.039 108.503,88.374 109.240 M94.832 114.601 L 94.953 119.514 95.020 114.790 C 95.057 112.191,95.002 109.981,94.899 109.877 C 94.796 109.774,94.766 111.900,94.832 114.601 M192.410 110.760 C 192.412 111.429,192.459 111.673,192.515 111.304 C 192.571 110.934,192.569 110.387,192.512 110.088 C 192.454 109.789,192.408 110.091,192.410 110.760 M169.584 114.772 C 169.584 117.246,169.620 118.258,169.664 117.021 C 169.709 115.784,169.709 113.760,169.664 112.523 C 169.620 111.286,169.584 112.298,169.584 114.772 M117.555 117.933 C 117.555 122.012,117.588 123.681,117.629 121.641 C 117.669 119.602,117.669 116.264,117.629 114.225 C 117.588 112.185,117.555 113.854,117.555 117.933 M187.564 112.948 C 187.563 114.152,187.604 114.675,187.655 114.111 C 187.706 113.546,187.706 112.562,187.656 111.922 C 187.606 111.283,187.564 111.745,187.564 112.948 M188.884 116.654 C 189.590 116.703,190.684 116.702,191.315 116.653 C 191.946 116.603,191.368 116.562,190.030 116.563 C 188.693 116.564,188.177 116.604,188.884 116.654 M61.819 117.933 C 61.819 118.401,61.869 118.593,61.931 118.359 C 61.992 118.125,61.992 117.742,61.931 117.508 C 61.869 117.274,61.819 117.465,61.819 117.933 M298.832 119.574 L 297.994 120.486 298.906 119.648 C 299.407 119.187,299.818 118.777,299.818 118.736 C 299.818 118.551,299.612 118.726,298.832 119.574 M147.903 121.268 C 148.271 121.324,148.872 121.324,149.240 121.268 C 149.608 121.213,149.307 121.167,148.571 121.167 C 147.836 121.167,147.535 121.213,147.903 121.268 M172.948 121.505 C 173.182 121.566,173.565 121.566,173.799 121.505 C 174.033 121.444,173.842 121.394,173.374 121.394 C 172.906 121.394,172.714 121.444,172.948 121.505 M47.416 121.657 C 47.416 121.698,47.772 122.054,48.207 122.447 L 48.997 123.161 48.283 122.371 C 47.617 121.634,47.416 121.469,47.416 121.657 M84.012 123.283 C 84.535 123.818,85.017 124.255,85.084 124.255 C 85.150 124.255,84.778 123.818,84.255 123.283 C 83.733 122.748,83.251 122.310,83.184 122.310 C 83.117 122.310,83.490 122.748,84.012 123.283 M94.324 123.941 C 94.012 124.338,94.019 124.347,94.407 124.043 C 94.799 123.736,94.836 123.803,94.875 124.894 L 94.918 126.079 95.012 125.013 C 95.123 123.772,94.823 123.306,94.324 123.941 M169.432 128.511 C 169.393 131.253,169.444 133.496,169.544 133.496 C 169.644 133.496,169.726 131.294,169.726 128.602 C 169.726 123.977,169.750 123.728,170.152 124.043 C 170.538 124.346,170.546 124.337,170.244 123.951 C 169.587 123.114,169.501 123.592,169.432 128.511 M190.030 125.471 L 189.058 125.645 189.909 125.676 C 190.377 125.693,190.924 125.601,191.125 125.471 C 191.522 125.214,191.466 125.214,190.030 125.471 M56.361 125.651 C 57.067 125.700,58.162 125.699,58.792 125.650 C 59.423 125.600,58.845 125.559,57.508 125.560 C 56.170 125.561,55.654 125.601,56.361 125.651 M88.815 125.648 C 89.316 125.701,90.137 125.701,90.638 125.648 C 91.140 125.596,90.729 125.553,89.726 125.553 C 88.723 125.553,88.313 125.596,88.815 125.648 M147.546 125.651 C 148.253 125.700,149.347 125.699,149.978 125.650 C 150.609 125.600,150.030 125.559,148.693 125.560 C 147.356 125.561,146.840 125.601,147.546 125.651 M174.037 125.647 C 174.469 125.700,175.235 125.701,175.739 125.649 C 176.244 125.596,175.891 125.552,174.954 125.551 C 174.018 125.550,173.605 125.593,174.037 125.647 M257.447 126.859 C 257.748 126.916,258.240 126.916,258.541 126.859 C 258.842 126.801,258.596 126.753,257.994 126.753 C 257.392 126.753,257.146 126.801,257.447 126.859 M280.426 126.855 C 280.660 126.916,281.043 126.916,281.277 126.855 C 281.511 126.793,281.319 126.743,280.851 126.743 C 280.383 126.743,280.191 126.793,280.426 126.855 M260.247 127.105 C 260.616 127.160,261.163 127.159,261.462 127.101 C 261.761 127.044,261.459 126.998,260.790 127.000 C 260.122 127.001,259.877 127.049,260.247 127.105 M278.237 127.098 C 278.471 127.159,278.854 127.159,279.088 127.098 C 279.322 127.037,279.131 126.987,278.663 126.987 C 278.195 126.987,278.003 127.037,278.237 127.098 M264.137 127.348 C 264.507 127.404,265.054 127.402,265.353 127.344 C 265.652 127.287,265.350 127.241,264.681 127.243 C 264.012 127.245,263.767 127.292,264.137 127.348 M275.079 127.348 C 275.449 127.404,275.996 127.402,276.295 127.344 C 276.594 127.287,276.292 127.241,275.623 127.243 C 274.954 127.245,274.710 127.292,275.079 127.348 M320.353 131.368 L 319.392 132.401 320.426 131.440 C 320.994 130.911,321.459 130.446,321.459 130.407 C 321.459 130.223,321.247 130.407,320.353 131.368 M240.547 135.365 C 240.781 135.426,241.164 135.426,241.398 135.365 C 241.632 135.304,241.441 135.254,240.973 135.254 C 240.505 135.254,240.313 135.304,240.547 135.365 M212.023 139.271 L 211.185 140.182 212.097 139.344 C 212.946 138.564,213.121 138.359,212.935 138.359 C 212.895 138.359,212.484 138.769,212.023 139.271 M248.754 138.678 C 248.754 138.720,249.109 139.075,249.544 139.468 L 250.334 140.182 249.620 139.392 C 248.954 138.655,248.754 138.490,248.754 138.678 M320.365 143.951 C 320.887 144.486,321.369 144.924,321.436 144.924 C 321.503 144.924,321.130 144.486,320.608 143.951 C 320.086 143.416,319.603 142.979,319.537 142.979 C 319.470 142.979,319.842 143.416,320.365 143.951 M229.619 146.505 C 229.621 147.307,229.666 147.606,229.720 147.169 C 229.774 146.732,229.773 146.075,229.718 145.710 C 229.662 145.345,229.618 145.702,229.619 146.505 M302.553 146.560 C 303.055 146.613,303.875 146.613,304.377 146.560 C 304.878 146.508,304.468 146.465,303.465 146.465 C 302.462 146.465,302.052 146.508,302.553 146.560 M315.380 151.079 C 315.380 151.121,315.736 151.477,316.170 151.869 L 316.960 152.584 316.246 151.793 C 315.581 151.057,315.380 150.891,315.380 151.079 M289.835 152.644 L 288.997 153.556 289.909 152.718 C 290.410 152.257,290.821 151.847,290.821 151.806 C 290.821 151.621,290.615 151.796,289.835 152.644 M321.302 164.498 C 321.301 165.702,321.342 166.225,321.393 165.661 C 321.444 165.096,321.445 164.112,321.395 163.472 C 321.345 162.833,321.303 163.295,321.302 164.498 M182.614 184.195 C 182.023 184.796,181.595 185.289,181.662 185.289 C 181.729 185.289,182.266 184.796,182.857 184.195 C 183.448 183.593,183.876 183.100,183.809 183.100 C 183.743 183.100,183.205 183.593,182.614 184.195 M175.669 191.185 L 174.954 191.976 175.745 191.261 C 176.179 190.869,176.535 190.513,176.535 190.471 C 176.535 190.283,176.334 190.449,175.669 191.185 M76.049 224.852 C 76.350 224.910,76.842 224.910,77.143 224.852 C 77.444 224.794,77.198 224.747,76.596 224.747 C 75.994 224.747,75.748 224.794,76.049 224.852 M100.608 224.852 C 100.909 224.910,101.401 224.910,101.702 224.852 C 102.003 224.794,101.757 224.747,101.155 224.747 C 100.553 224.747,100.307 224.794,100.608 224.852 M78.845 225.098 C 79.213 225.154,79.815 225.154,80.182 225.098 C 80.550 225.042,80.249 224.997,79.514 224.997 C 78.778 224.997,78.477 225.042,78.845 225.098 M97.572 225.098 C 97.941 225.154,98.488 225.153,98.788 225.095 C 99.087 225.037,98.784 224.992,98.116 224.994 C 97.447 224.995,97.202 225.043,97.572 225.098 M83.951 225.344 C 84.453 225.397,85.274 225.397,85.775 225.344 C 86.277 225.292,85.866 225.249,84.863 225.249 C 83.860 225.249,83.450 225.292,83.951 225.344 M92.347 225.346 C 92.919 225.397,93.794 225.396,94.292 225.344 C 94.790 225.292,94.322 225.250,93.252 225.251 C 92.182 225.251,91.775 225.294,92.347 225.346 " stroke="none" fill="#95bdc1" fill-rule="evenodd"></path><path id="path4" d="M155.137 22.204 C 155.137 22.246,155.492 22.601,155.927 22.994 L 156.717 23.708 156.003 22.918 C 155.337 22.181,155.137 22.016,155.137 22.204 M306.439 95.076 C 306.439 95.544,306.489 95.736,306.551 95.502 C 306.612 95.267,306.612 94.884,306.551 94.650 C 306.489 94.416,306.439 94.608,306.439 95.076 M139.280 96.715 C 140.121 96.763,141.434 96.762,142.198 96.714 C 142.962 96.666,142.274 96.627,140.669 96.628 C 139.064 96.628,138.439 96.668,139.280 96.715 M155.198 96.715 C 155.967 96.763,157.225 96.763,157.994 96.715 C 158.763 96.666,158.134 96.627,156.596 96.627 C 155.058 96.627,154.429 96.666,155.198 96.715 M190.021 96.713 L 192.809 96.793 192.893 98.975 L 192.977 101.156 192.963 98.906 L 192.948 96.657 190.091 96.644 L 187.233 96.632 190.021 96.713 M153.546 106.869 C 153.546 112.486,153.578 114.749,153.617 111.899 C 153.656 109.048,153.656 104.452,153.617 101.686 C 153.578 98.920,153.546 101.252,153.546 106.869 M48.499 99.514 L 47.538 100.547 48.571 99.586 C 49.533 98.692,49.717 98.480,49.533 98.480 C 49.493 98.480,49.028 98.945,48.499 99.514 M306.444 100.061 C 306.447 100.596,306.497 100.786,306.555 100.483 C 306.613 100.181,306.611 99.743,306.550 99.511 C 306.489 99.278,306.442 99.526,306.444 100.061 M56.474 101.086 C 56.842 101.142,57.444 101.142,57.812 101.086 C 58.179 101.030,57.878 100.985,57.143 100.985 C 56.407 100.985,56.106 101.030,56.474 101.086 M187.060 103.465 C 187.062 104.134,187.109 104.378,187.165 104.009 C 187.221 103.639,187.220 103.092,187.162 102.793 C 187.104 102.494,187.059 102.796,187.060 103.465 M46.505 104.438 C 46.508 104.973,46.558 105.163,46.616 104.860 C 46.674 104.558,46.672 104.120,46.611 103.888 C 46.550 103.655,46.502 103.903,46.505 104.438 M89.304 103.761 C 89.674 103.817,90.221 103.816,90.520 103.758 C 90.819 103.700,90.517 103.654,89.848 103.656 C 89.179 103.658,88.935 103.705,89.304 103.761 M115.805 103.761 C 116.173 103.817,116.775 103.817,117.143 103.761 C 117.511 103.705,117.210 103.659,116.474 103.659 C 115.739 103.659,115.438 103.705,115.805 103.761 M174.167 103.761 C 174.537 103.817,175.084 103.816,175.383 103.758 C 175.682 103.700,175.380 103.654,174.711 103.656 C 174.043 103.658,173.798 103.705,174.167 103.761 M71.544 114.575 C 71.514 120.418,71.571 125.250,71.672 125.312 C 71.838 125.415,71.834 117.331,71.664 107.720 C 71.628 105.647,71.573 108.732,71.544 114.575 M100.538 115.258 C 100.538 121.477,100.569 124.021,100.608 120.912 C 100.646 117.802,100.646 112.714,100.608 109.605 C 100.569 106.495,100.538 109.040,100.538 115.258 M110.208 105.046 C 110.208 105.514,110.258 105.705,110.320 105.471 C 110.381 105.237,110.381 104.854,110.320 104.620 C 110.258 104.386,110.208 104.578,110.208 105.046 M192.661 106.018 C 192.661 106.888,192.706 107.243,192.759 106.809 C 192.813 106.374,192.813 105.663,192.759 105.228 C 192.706 104.793,192.661 105.149,192.661 106.018 M120.608 104.879 C 120.608 104.920,120.964 105.276,121.398 105.669 L 122.188 106.383 121.474 105.593 C 120.809 104.856,120.608 104.691,120.608 104.879 M123.148 117.447 C 123.148 121.793,123.181 123.571,123.221 121.398 C 123.262 119.225,123.262 115.669,123.221 113.495 C 123.181 111.322,123.148 113.100,123.148 117.447 M187.312 111.125 C 187.312 111.994,187.356 112.350,187.410 111.915 C 187.464 111.480,187.464 110.769,187.410 110.334 C 187.356 109.900,187.312 110.255,187.312 111.125 M87.577 110.527 C 87.170 111.421,87.248 111.612,87.688 110.799 C 87.894 110.420,88.017 110.063,87.961 110.008 C 87.906 109.952,87.733 110.186,87.577 110.527 M110.395 117.860 C 110.328 122.033,110.357 125.364,110.460 125.261 C 110.562 125.159,110.616 121.745,110.581 117.674 L 110.516 110.274 110.395 117.860 M192.407 114.043 C 192.407 114.644,192.454 114.891,192.512 114.590 C 192.570 114.289,192.570 113.796,192.512 113.495 C 192.454 113.195,192.407 113.441,192.407 114.043 M177.334 114.650 C 177.336 115.319,177.383 115.564,177.439 115.194 C 177.495 114.825,177.493 114.277,177.436 113.978 C 177.378 113.679,177.332 113.982,177.334 114.650 M60.836 115.612 C 61.062 115.885,61.356 116.383,61.490 116.717 C 61.657 117.136,61.737 117.194,61.748 116.904 C 61.756 116.672,61.462 116.174,61.094 115.798 C 60.726 115.421,60.610 115.338,60.836 115.612 M48.623 116.409 C 50.448 116.463,51.483 116.593,51.620 116.787 C 51.771 116.998,51.802 116.979,51.731 116.717 C 51.650 116.420,51.096 116.350,48.734 116.340 L 45.836 116.327 48.623 116.409 M67.668 117.812 C 67.670 118.480,67.717 118.725,67.773 118.355 C 67.829 117.986,67.828 117.439,67.770 117.140 C 67.712 116.840,67.667 117.143,67.668 117.812 M90.760 121.262 C 90.994 121.323,91.377 121.323,91.611 121.262 C 91.845 121.201,91.653 121.151,91.185 121.151 C 90.717 121.151,90.526 121.201,90.760 121.262 M172.827 121.266 C 173.128 121.324,173.620 121.324,173.921 121.266 C 174.222 121.208,173.976 121.160,173.374 121.160 C 172.772 121.160,172.526 121.208,172.827 121.266 M156.706 122.857 L 155.745 123.891 156.778 122.929 C 157.739 122.035,157.923 121.824,157.739 121.824 C 157.700 121.824,157.235 122.289,156.706 122.857 M193.126 122.796 C 193.126 123.264,193.176 123.456,193.238 123.222 C 193.299 122.988,193.299 122.605,193.238 122.371 C 193.176 122.137,193.126 122.328,193.126 122.796 M242.614 125.652 C 243.584 125.698,245.170 125.698,246.140 125.652 C 247.109 125.606,246.316 125.568,244.377 125.568 C 242.438 125.568,241.644 125.606,242.614 125.652 M56.964 125.889 C 57.333 125.945,57.881 125.943,58.180 125.885 C 58.479 125.828,58.176 125.782,57.508 125.784 C 56.839 125.786,56.594 125.833,56.964 125.889 M89.301 125.882 C 89.535 125.943,89.918 125.943,90.152 125.882 C 90.386 125.821,90.195 125.771,89.726 125.771 C 89.258 125.771,89.067 125.821,89.301 125.882 M148.024 125.886 C 148.325 125.944,148.818 125.944,149.119 125.886 C 149.419 125.828,149.173 125.781,148.571 125.781 C 147.970 125.781,147.723 125.828,148.024 125.886 M174.407 125.882 C 174.641 125.943,175.024 125.943,175.258 125.882 C 175.492 125.821,175.301 125.771,174.833 125.771 C 174.365 125.771,174.173 125.821,174.407 125.882 M259.514 126.855 C 259.748 126.916,260.131 126.916,260.365 126.855 C 260.599 126.793,260.407 126.743,259.939 126.743 C 259.471 126.743,259.280 126.793,259.514 126.855 M84.601 127.356 C 84.328 127.716,84.330 127.735,84.616 127.481 C 84.887 127.239,85.053 127.263,85.456 127.602 C 85.956 128.023,85.956 128.023,85.494 127.477 C 84.940 126.822,84.998 126.830,84.601 127.356 M263.164 127.105 C 263.534 127.160,264.081 127.159,264.380 127.101 C 264.679 127.044,264.377 126.998,263.708 127.000 C 263.040 127.001,262.795 127.049,263.164 127.105 M275.927 127.102 C 276.228 127.160,276.720 127.160,277.021 127.102 C 277.322 127.044,277.076 126.996,276.474 126.996 C 275.872 126.996,275.626 127.044,275.927 127.102 M269.119 127.353 C 269.821 127.402,270.970 127.402,271.672 127.353 C 272.374 127.303,271.799 127.263,270.395 127.263 C 268.991 127.263,268.416 127.303,269.119 127.353 M326.386 128.807 C 326.756 128.863,327.303 128.861,327.602 128.803 C 327.901 128.746,327.599 128.700,326.930 128.702 C 326.261 128.704,326.017 128.751,326.386 128.807 M213.739 137.264 C 212.742 138.267,211.982 139.088,212.049 139.088 C 212.116 139.088,212.985 138.267,213.982 137.264 C 214.978 136.261,215.739 135.441,215.672 135.441 C 215.605 135.441,214.735 136.261,213.739 137.264 M232.935 138.784 L 232.097 139.696 233.009 138.858 C 233.858 138.078,234.033 137.872,233.847 137.872 C 233.806 137.872,233.396 138.283,232.935 138.784 M251.984 146.505 C 251.986 147.173,252.033 147.418,252.089 147.048 C 252.145 146.679,252.144 146.132,252.086 145.833 C 252.028 145.533,251.983 145.836,251.984 146.505 M316.109 152.097 C 316.563 152.565,316.989 152.948,317.056 152.948 C 317.123 152.948,316.806 152.565,316.353 152.097 C 315.899 151.629,315.473 151.246,315.406 151.246 C 315.339 151.246,315.656 151.629,316.109 152.097 M248.498 154.590 L 247.660 155.502 248.571 154.664 C 249.073 154.203,249.483 153.792,249.483 153.752 C 249.483 153.566,249.278 153.741,248.498 154.590 M240.187 157.745 C 240.624 157.799,241.280 157.798,241.646 157.742 C 242.011 157.687,241.653 157.642,240.851 157.644 C 240.049 157.645,239.750 157.690,240.187 157.745 M285.546 164.498 C 285.548 165.301,285.593 165.600,285.647 165.163 C 285.701 164.726,285.700 164.069,285.645 163.704 C 285.589 163.338,285.545 163.696,285.546 164.498 M290.699 177.021 C 291.221 177.556,291.704 177.994,291.770 177.994 C 291.837 177.994,291.465 177.556,290.942 177.021 C 290.420 176.486,289.938 176.049,289.871 176.049 C 289.804 176.049,290.177 176.486,290.699 177.021 M302.426 182.303 C 302.858 182.357,303.624 182.358,304.128 182.305 C 304.633 182.252,304.280 182.209,303.343 182.207 C 302.407 182.206,301.995 182.249,302.426 182.303 M179.446 187.416 L 177.872 189.058 179.514 187.484 C 181.038 186.023,181.266 185.775,181.087 185.775 C 181.050 185.775,180.311 186.514,179.446 187.416 M78.359 224.848 C 78.593 224.910,78.976 224.910,79.210 224.848 C 79.444 224.787,79.252 224.737,78.784 224.737 C 78.316 224.737,78.125 224.787,78.359 224.848 M82.365 225.100 C 82.797 225.153,83.563 225.154,84.068 225.101 C 84.572 225.049,84.219 225.005,83.283 225.004 C 82.347 225.003,81.934 225.046,82.365 225.100 M93.794 225.100 C 94.226 225.153,94.992 225.154,95.496 225.101 C 96.001 225.049,95.647 225.005,94.711 225.004 C 93.775 225.003,93.362 225.046,93.794 225.100 " stroke="none" fill="#b4ccd4" fill-rule="evenodd"></path></g></svg>