<svg id="svg" version="1.1" xmlns="http://www.w3.org/2000/svg" xmlns:xlink="http://www.w3.org/1999/xlink" width="400" height="318.26452064380686" viewBox="0, 0, 400,318.26452064380686"><g id="svgg"><path id="path0" d="M0.010 97.901 L 0.020 195.801 2.780 197.837 C 45.168 229.101,102.080 235.254,145.826 213.301 C 172.302 200.015,195.019 176.356,207.024 149.564 C 214.864 132.069,230.892 124.389,254.024 127.043 C 281.918 130.244,297.678 126.474,303.294 115.256 C 309.178 103.502,308.654 90.524,301.944 81.807 C 294.983 72.765,283.679 67.629,261.442 63.404 C 190.409 49.909,152.143 30.534,140.778 2.309 L 139.848 0.000 69.924 0.000 L 0.000 0.000 0.010 97.901 M119.204 96.970 C 120.807 97.799,121.127 100.050,119.826 101.351 C 117.979 103.198,114.190 102.016,114.216 99.602 C 114.242 97.141,116.862 95.759,119.204 96.970 M52.904 109.447 L 52.904 121.484 59.202 121.484 L 65.500 121.484 65.500 123.863 L 65.500 126.242 56.263 126.242 L 47.026 126.242 47.026 111.826 L 47.026 97.411 49.965 97.411 L 52.904 97.411 52.904 109.447 M153.849 102.939 C 153.748 105.980,153.586 110.514,153.490 113.016 L 153.314 117.565 150.975 117.565 C 149.688 117.565,148.622 117.533,148.606 117.495 C 148.493 117.222,147.883 97.786,147.982 97.621 C 148.052 97.505,149.442 97.411,151.071 97.411 L 154.033 97.411 153.849 102.939 M81.568 105.174 C 89.489 108.011,90.105 121.727,82.485 125.588 C 76.029 128.859,68.904 125.101,67.704 117.791 C 66.224 108.777,73.398 102.248,81.568 105.174 M102.401 105.224 C 102.987 105.523,103.630 105.964,103.829 106.205 C 104.298 106.770,104.689 106.518,104.689 105.652 C 104.689 104.975,104.714 104.969,107.365 104.969 L 110.041 104.969 109.954 116.515 L 109.867 128.062 109.080 129.664 C 106.461 134.999,96.661 136.451,92.512 132.120 C 91.684 131.256,91.672 131.311,93.179 129.247 L 94.126 127.950 94.999 128.603 C 99.171 131.723,104.127 130.150,104.128 125.703 L 104.129 124.465 103.499 125.041 C 99.116 129.049,92.117 125.729,90.664 118.953 C 88.673 109.666,95.486 101.696,102.401 105.224 M139.625 105.127 C 142.801 106.454,143.157 107.704,143.266 117.915 L 143.354 126.242 140.409 126.242 L 137.464 126.242 137.381 118.380 L 137.299 110.518 136.513 109.842 C 135.094 108.622,131.978 109.056,130.878 110.628 C 130.508 111.155,130.441 112.408,130.441 118.747 L 130.441 126.242 127.642 126.242 L 124.843 126.242 124.843 115.605 L 124.843 104.969 127.498 104.969 L 130.154 104.969 130.336 106.104 L 130.517 107.239 131.249 106.580 C 132.551 105.406,132.969 105.160,134.305 104.785 C 135.827 104.357,138.139 104.506,139.625 105.127 M120.364 115.605 L 120.364 126.242 117.425 126.242 L 114.486 126.242 114.486 115.605 L 114.486 104.969 117.425 104.969 L 120.364 104.969 120.364 115.605 M75.170 110.033 C 72.744 112.163,72.657 118.627,75.022 120.994 C 78.941 124.915,83.528 118.991,81.629 112.460 C 80.694 109.245,77.455 108.027,75.170 110.033 M98.483 109.645 C 95.477 111.510,95.398 119.704,98.368 121.516 C 100.006 122.515,102.625 122.115,103.779 120.689 C 104.219 120.146,104.272 111.358,103.841 110.551 C 103.136 109.235,100.000 108.705,98.483 109.645 M152.396 120.917 C 153.462 121.322,154.292 122.810,154.117 124.003 C 153.587 127.620,147.778 127.317,147.805 123.674 C 147.822 121.362,150.049 120.024,152.396 120.917 M325.748 129.889 C 317.564 131.945,316.499 143.053,324.143 146.635 C 328.472 148.663,333.768 146.657,335.858 142.197 C 338.891 135.724,332.670 128.151,325.748 129.889 M238.839 136.752 C 230.515 138.993,227.634 149.284,233.646 155.296 C 240.112 161.762,250.853 158.323,252.541 149.248 C 253.963 141.603,246.408 134.713,238.839 136.752 M301.402 147.787 C 286.927 150.425,281.398 168.011,291.838 178.203 C 303.135 189.233,322.125 181.106,322.008 165.290 C 321.928 154.376,311.915 145.870,301.402 147.787 " stroke="none" fill="#fbfbfb" fill-rule="evenodd"></path><path id="path1" d="M140.544 1.470 C 151.656 29.723,189.022 49.237,257.243 62.413 C 276.414 66.116,281.497 67.580,289.443 71.687 C 302.931 78.658,309.297 89.905,307.250 103.149 C 303.818 125.358,290.253 131.130,251.365 126.929 C 231.829 124.819,213.937 133.383,207.979 147.696 C 198.659 170.084,179.832 192.241,158.100 206.397 C 132.355 223.167,101.502 229.586,68.579 225.021 C 45.213 221.781,23.123 212.724,3.009 198.138 L 0.000 195.955 0.000 257.110 L 0.000 318.265 200.000 318.265 L 400.000 318.265 400.000 159.132 L 400.000 0.000 269.983 0.000 L 139.966 0.000 140.544 1.470 M115.706 97.093 C 113.108 98.725,114.258 102.029,117.425 102.029 C 119.434 102.029,120.440 101.142,120.440 99.370 C 120.440 97.128,117.727 95.823,115.706 97.093 M47.026 111.966 L 47.026 126.242 56.263 126.242 L 65.500 126.242 65.500 124.003 L 65.500 121.763 59.202 121.763 L 52.904 121.763 52.904 109.727 L 52.904 97.691 49.965 97.691 L 47.026 97.691 47.026 111.966 M148.181 103.219 C 148.282 106.260,148.444 110.668,148.541 113.016 L 148.716 117.285 150.890 117.285 L 153.065 117.285 153.218 116.235 C 153.302 115.658,153.443 111.847,153.532 107.768 C 153.620 103.688,153.763 99.752,153.850 99.020 L 154.006 97.691 151.001 97.691 L 147.996 97.691 148.181 103.219 M74.266 105.208 C 66.072 108.040,65.222 121.634,72.999 125.463 C 78.593 128.218,85.299 125.561,87.048 119.897 C 89.976 110.419,82.858 102.239,74.266 105.208 M96.026 105.172 C 89.130 107.607,88.558 121.916,95.212 125.538 C 97.836 126.966,102.175 126.663,103.594 124.952 C 104.648 123.683,104.572 126.719,103.507 128.441 C 102.006 130.870,96.862 131.004,94.927 128.666 C 94.362 127.983,94.230 128.055,92.955 129.743 L 91.791 131.285 92.507 132.000 C 96.069 135.563,104.368 135.217,107.759 131.364 C 109.669 129.194,109.727 128.744,109.727 116.103 L 109.727 104.947 107.278 105.028 L 104.829 105.108 104.741 106.019 L 104.653 106.929 103.692 106.196 C 101.718 104.690,98.579 104.271,96.026 105.172 M133.690 105.127 C 133.090 105.347,132.051 105.977,131.380 106.526 L 130.161 107.525 130.161 106.247 L 130.161 104.969 127.502 104.969 L 124.843 104.969 124.843 115.605 L 124.843 126.242 127.642 126.242 L 130.441 126.242 130.441 118.585 L 130.441 110.928 131.130 110.185 C 133.070 108.092,136.740 108.592,137.420 111.042 C 137.591 111.659,137.716 115.077,137.717 119.174 L 137.719 126.242 140.393 126.242 L 143.067 126.242 142.982 117.635 C 142.888 108.063,142.818 107.691,140.801 105.994 C 139.251 104.689,135.975 104.290,133.690 105.127 M114.766 115.605 L 114.766 126.242 117.425 126.242 L 120.084 126.242 120.084 115.605 L 120.084 104.969 117.425 104.969 L 114.766 104.969 114.766 115.605 M79.709 109.446 C 81.622 110.613,82.599 113.936,82.055 117.431 C 81.025 124.049,74.156 124.024,73.335 117.399 C 72.574 111.262,75.893 107.120,79.709 109.446 M102.081 109.185 C 102.515 109.349,103.216 109.813,103.639 110.217 L 104.409 110.951 104.409 115.496 C 104.409 120.722,104.126 121.441,101.824 122.061 C 98.145 123.052,95.791 120.133,96.065 114.920 C 96.300 110.448,98.890 107.979,102.081 109.185 M148.721 121.599 C 147.016 123.066,147.987 125.989,150.310 126.381 C 153.340 126.893,155.213 123.819,153.136 121.742 C 152.032 120.639,149.917 120.570,148.721 121.599 M331.929 130.580 C 337.402 133.558,338.417 141.058,333.900 145.139 C 329.466 149.145,322.710 147.979,319.787 142.702 C 315.657 135.248,324.424 126.495,331.929 130.580 M246.117 137.227 C 257.114 142.290,253.648 158.572,241.573 158.572 C 228.755 158.572,226.068 140.692,238.289 136.709 C 240.246 136.071,244.171 136.331,246.117 137.227 M308.567 147.954 C 322.064 151.396,326.763 168.070,317.011 177.914 C 305.620 189.413,286.354 181.521,286.354 165.356 C 286.354 153.872,297.507 145.134,308.567 147.954 " stroke="none" fill="#649ca4" fill-rule="evenodd"></path><path id="path2" d="M307.440 98.390 C 307.441 99.468,307.491 99.875,307.552 99.294 C 307.613 98.713,307.612 97.831,307.550 97.335 C 307.488 96.838,307.438 97.313,307.440 98.390 M48.506 97.618 C 49.397 97.674,50.782 97.673,51.585 97.617 C 52.387 97.560,51.659 97.515,49.965 97.515 C 48.272 97.516,47.615 97.562,48.506 97.618 M147.907 97.804 C 147.824 98.020,147.808 98.619,147.871 99.134 C 147.976 99.985,147.990 99.963,148.031 98.890 L 148.076 97.710 151.085 97.620 L 154.094 97.530 151.076 97.470 C 148.702 97.423,148.026 97.495,147.907 97.804 M153.750 102.449 C 153.750 103.142,153.805 103.425,153.871 103.079 C 153.938 102.733,153.938 102.166,153.871 101.819 C 153.805 101.473,153.750 101.756,153.750 102.449 M77.051 104.610 C 77.476 104.674,78.106 104.672,78.450 104.606 C 78.795 104.539,78.446 104.487,77.677 104.489 C 76.907 104.491,76.625 104.545,77.051 104.610 M98.460 104.606 C 98.807 104.673,99.374 104.673,99.720 104.606 C 100.066 104.540,99.783 104.485,99.090 104.485 C 98.397 104.485,98.114 104.540,98.460 104.606 M135.972 104.607 C 136.321 104.674,136.825 104.671,137.092 104.601 C 137.360 104.531,137.075 104.476,136.459 104.479 C 135.843 104.482,135.624 104.540,135.972 104.607 M148.152 107.208 C 148.152 107.901,148.206 108.184,148.273 107.838 C 148.340 107.491,148.340 106.924,148.273 106.578 C 148.206 106.232,148.152 106.515,148.152 107.208 M153.470 111.127 C 153.470 111.819,153.525 112.103,153.592 111.756 C 153.658 111.410,153.658 110.843,153.592 110.497 C 153.525 110.150,153.470 110.434,153.470 111.127 M67.544 115.605 C 67.544 116.452,67.596 116.798,67.660 116.375 C 67.724 115.952,67.724 115.259,67.660 114.836 C 67.596 114.412,67.544 114.759,67.544 115.605 M148.426 115.465 C 148.429 116.081,148.487 116.300,148.553 115.952 C 148.620 115.604,148.618 115.100,148.548 114.832 C 148.478 114.565,148.423 114.850,148.426 115.465 M56.193 121.693 C 57.925 121.742,60.759 121.742,62.491 121.693 C 64.223 121.643,62.806 121.603,59.342 121.603 C 55.878 121.603,54.461 121.643,56.193 121.693 M77.190 126.720 C 77.538 126.787,78.042 126.784,78.310 126.714 C 78.577 126.644,78.293 126.590,77.677 126.593 C 77.061 126.596,76.842 126.653,77.190 126.720 M98.600 126.715 C 98.870 126.785,99.311 126.785,99.580 126.715 C 99.850 126.645,99.629 126.587,99.090 126.587 C 98.551 126.587,98.331 126.645,98.600 126.715 M265.150 128.115 C 265.420 128.185,265.861 128.185,266.130 128.115 C 266.400 128.044,266.179 127.987,265.640 127.987 C 265.101 127.987,264.881 128.044,265.150 128.115 M98.880 130.354 C 99.150 130.424,99.591 130.424,99.860 130.354 C 100.129 130.283,99.909 130.226,99.370 130.226 C 98.831 130.226,98.611 130.283,98.880 130.354 M107.330 131.910 L 106.508 132.820 107.418 131.998 C 108.266 131.232,108.456 131.001,108.240 131.001 C 108.192 131.001,107.782 131.410,107.330 131.910 M182.628 185.654 L 181.805 186.564 182.715 185.742 C 183.216 185.290,183.625 184.880,183.625 184.832 C 183.625 184.616,183.394 184.806,182.628 185.654 M176.469 191.812 L 175.647 192.722 176.557 191.900 C 177.057 191.448,177.467 191.038,177.467 190.990 C 177.467 190.774,177.236 190.964,176.469 191.812 M84.888 226.373 C 85.314 226.437,85.944 226.436,86.288 226.369 C 86.632 226.303,86.284 226.250,85.514 226.252 C 84.745 226.254,84.463 226.309,84.888 226.373 M92.446 226.373 C 92.872 226.437,93.501 226.436,93.846 226.369 C 94.190 226.303,93.842 226.250,93.072 226.252 C 92.302 226.254,92.021 226.309,92.446 226.373 " stroke="none" fill="#abccd3" fill-rule="evenodd"></path><path id="path3" d="M153.750 100.210 C 153.750 100.903,153.805 101.186,153.871 100.840 C 153.938 100.493,153.938 99.927,153.871 99.580 C 153.805 99.234,153.750 99.517,153.750 100.210 M148.152 104.969 C 148.152 105.661,148.206 105.945,148.273 105.598 C 148.340 105.252,148.340 104.685,148.273 104.339 C 148.206 103.992,148.152 104.276,148.152 104.969 M109.854 115.325 C 109.854 121.099,109.891 123.460,109.937 120.574 C 109.982 117.687,109.982 112.964,109.937 110.077 C 109.891 107.190,109.854 109.552,109.854 115.325 M114.613 115.605 C 114.613 121.533,114.650 123.957,114.695 120.994 C 114.741 118.030,114.741 113.181,114.695 110.217 C 114.650 107.253,114.613 109.678,114.613 115.605 M120.211 115.605 C 120.211 121.533,120.248 123.957,120.294 120.994 C 120.339 118.030,120.339 113.181,120.294 110.217 C 120.248 107.253,120.211 109.678,120.211 115.605 M153.470 108.887 C 153.470 109.580,153.525 109.864,153.592 109.517 C 153.658 109.171,153.658 108.604,153.592 108.258 C 153.525 107.911,153.470 108.195,153.470 108.887 M104.243 115.465 C 104.243 118.083,104.285 119.191,104.337 117.928 C 104.389 116.666,104.389 114.524,104.337 113.170 C 104.286 111.815,104.244 112.848,104.243 115.465 M143.160 118.824 C 143.159 122.981,143.198 124.721,143.246 122.690 C 143.294 120.659,143.294 117.258,143.246 115.132 C 143.199 113.006,143.160 114.668,143.160 118.824 M137.561 118.964 C 137.561 123.044,137.600 124.713,137.648 122.673 C 137.696 120.633,137.696 117.295,137.648 115.255 C 137.600 113.216,137.561 114.885,137.561 118.964 M148.426 113.226 C 148.429 113.842,148.487 114.061,148.553 113.713 C 148.620 113.364,148.618 112.861,148.548 112.593 C 148.478 112.325,148.423 112.610,148.426 113.226 M82.092 115.605 C 82.092 116.298,82.146 116.582,82.213 116.235 C 82.280 115.889,82.280 115.322,82.213 114.976 C 82.146 114.629,82.092 114.913,82.092 115.605 M87.679 115.605 C 87.679 116.144,87.736 116.365,87.807 116.095 C 87.877 115.826,87.877 115.385,87.807 115.115 C 87.736 114.846,87.679 115.066,87.679 115.605 M153.136 116.644 C 153.116 117.222,152.964 117.268,150.805 117.356 L 148.495 117.451 150.814 117.508 C 153.180 117.566,153.685 117.338,153.303 116.384 C 153.223 116.187,153.148 116.304,153.136 116.644 M104.194 125.402 C 104.194 125.941,104.251 126.162,104.322 125.892 C 104.392 125.623,104.392 125.182,104.322 124.913 C 104.251 124.643,104.194 124.864,104.194 125.402 M214.258 138.348 L 213.436 139.258 214.346 138.436 C 214.846 137.984,215.255 137.575,215.255 137.526 C 215.255 137.310,215.024 137.501,214.258 138.348 M82.645 226.365 C 82.915 226.436,83.355 226.436,83.625 226.365 C 83.894 226.295,83.674 226.237,83.135 226.237 C 82.596 226.237,82.376 226.295,82.645 226.365 M94.682 226.365 C 94.951 226.436,95.392 226.436,95.661 226.365 C 95.931 226.295,95.710 226.237,95.171 226.237 C 94.633 226.237,94.412 226.295,94.682 226.365 " stroke="none" fill="#96bec1" fill-rule="evenodd"></path><path id="path4" d="" stroke="none" fill="#a4c4cc" fill-rule="evenodd"></path></g></svg>