<svg xmlns="http://www.w3.org/2000/svg" viewBox="0 0 201.06 195.66"><defs><style>.cls-1,.cls-2{fill:none;stroke:#000;stroke-miterlimit:10;stroke-width:5px;}.cls-2{stroke-linecap:round;}</style></defs><title>all outlets</title><g id="Layer_2" data-name="Layer 2"><g id="Layer_1-2" data-name="Layer 1"><path class="cls-1" d="M198.14,68.39H2.92a.42.42,0,0,1-.41-.51L16.35,6.4a5,5,0,0,1,4.88-3.9H179.61a5,5,0,0,1,4.87,3.89l14.07,61.49A.42.42,0,0,1,198.14,68.39Z"/><path class="cls-1" d="M50.27,110.92h41.4a5,5,0,0,1,5,5v77.25a0,0,0,0,1,0,0H45.27a0,0,0,0,1,0,0V115.92A5,5,0,0,1,50.27,110.92Z"/><path class="cls-2" d="M51.31,67.92a24.26,24.26,0,1,1-48.52,0"/><path class="cls-1" d="M100.34,67.92a24.27,24.27,0,1,1-48.53,0l5-64.49"/><path class="cls-1" d="M149.36,67.92a24.26,24.26,0,1,1-48.52,0L100.42,3"/><path class="cls-2" d="M198.39,68.78a24.26,24.26,0,1,1-48.52,0L145,2.5"/><path class="cls-1" d="M174.13,93.2a24.34,24.34,0,0,1-24.26-24.42l0-.39H51.3a24.33,24.33,0,0,1-24.25,24,24,24,0,0,1-9.29-1.86v97.68a5,5,0,0,0,5,5H178.07a5,5,0,0,0,5-5V91.48A24.15,24.15,0,0,1,174.13,93.2Z"/></g></g></svg>