<svg xmlns="http://www.w3.org/2000/svg" viewBox="0 0 224.5 150.94"><defs><style>.cls-1{fill:none;stroke:#000;stroke-miterlimit:10;stroke-width:5px;}</style></defs><title>delivery</title><g id="Layer_2" data-name="Layer 2"><g id="Layer_1-2" data-name="Layer 1"><circle class="cls-1" cx="49.33" cy="126.96" r="21.48"/><circle class="cls-1" cx="180.71" cy="126.96" r="21.48"/><path class="cls-1" d="M214.46,74.29H164.37a5.67,5.67,0,0,1-5.41-5.9V56.66a5.68,5.68,0,0,1,5.41-5.91h32.26Z"/><path class="cls-1" d="M133.42,2.5H8.11A5.61,5.61,0,0,0,2.5,8.11V120.47a5.61,5.61,0,0,0,5.61,5.61H27.89a21.45,21.45,0,0,1,42.87,0H139V8.11A5.61,5.61,0,0,0,133.42,2.5Z"/><path class="cls-1" d="M179.75,35.45H139v90.63h20.24a21.45,21.45,0,0,1,42.87,0h14.63a5.23,5.23,0,0,0,5.23-5.23V83.31a5.21,5.21,0,0,0-1.28-3.43l-37-42.63A5.23,5.23,0,0,0,179.75,35.45Z"/></g></g></svg>