<svg width="41" height="54" viewBox="0 0 41 54" fill="none" xmlns="http://www.w3.org/2000/svg">
<mask id="path-1-outside-1_124_57" maskUnits="userSpaceOnUse" x="-1" y="14.6869" width="42" height="40" fill="black">
<rect fill="white" x="-1" y="14.6869" width="42" height="40"/>
<path fill-rule="evenodd" clip-rule="evenodd" d="M13.7661 19.5156L5.59121 16.8556C3.8203 16.2793 1.85854 17.2272 1.2095 18.9728C0.560459 20.7183 1.46992 22.6005 3.24083 23.1767L9.11832 25.0892C8.11164 27.1987 7.53932 29.6197 7.53932 32.194C7.53932 35.4965 8.48125 38.5468 10.0739 41.0108L6.87127 47.3597C5.85859 49.3673 6.70521 51.7309 8.76225 52.6389C10.8193 53.547 13.3078 52.6556 14.3205 50.648L16.5093 46.3088C17.7559 46.7678 19.085 47.0156 20.4646 47.0156C21.9526 47.0156 23.3819 46.7273 24.7122 46.1967L26.9576 50.648C27.9702 52.6556 30.4587 53.547 32.5158 52.6389C34.5728 51.7309 35.4194 49.3673 34.4068 47.3597L31.049 40.7031C32.5241 38.2949 33.3899 35.3604 33.3899 32.194C33.3899 29.6017 32.8096 27.1648 31.7897 25.0449L37.5311 23.1767C39.302 22.6005 40.2115 20.7183 39.5625 18.9728C38.9134 17.2272 36.9517 16.2793 35.1808 16.8556L27.1129 19.4808C25.1704 18.1422 22.8959 17.3724 20.4646 17.3724C18.0123 17.3724 15.7196 18.1555 13.7661 19.5156Z"/>
</mask>
<path fill-rule="evenodd" clip-rule="evenodd" d="M13.7661 19.5156L5.59121 16.8556C3.8203 16.2793 1.85854 17.2272 1.2095 18.9728C0.560459 20.7183 1.46992 22.6005 3.24083 23.1767L9.11832 25.0892C8.11164 27.1987 7.53932 29.6197 7.53932 32.194C7.53932 35.4965 8.48125 38.5468 10.0739 41.0108L6.87127 47.3597C5.85859 49.3673 6.70521 51.7309 8.76225 52.6389C10.8193 53.547 13.3078 52.6556 14.3205 50.648L16.5093 46.3088C17.7559 46.7678 19.085 47.0156 20.4646 47.0156C21.9526 47.0156 23.3819 46.7273 24.7122 46.1967L26.9576 50.648C27.9702 52.6556 30.4587 53.547 32.5158 52.6389C34.5728 51.7309 35.4194 49.3673 34.4068 47.3597L31.049 40.7031C32.5241 38.2949 33.3899 35.3604 33.3899 32.194C33.3899 29.6017 32.8096 27.1648 31.7897 25.0449L37.5311 23.1767C39.302 22.6005 40.2115 20.7183 39.5625 18.9728C38.9134 17.2272 36.9517 16.2793 35.1808 16.8556L27.1129 19.4808C25.1704 18.1422 22.8959 17.3724 20.4646 17.3724C18.0123 17.3724 15.7196 18.1555 13.7661 19.5156Z" fill="#609CA4"/>
<path d="M5.59121 16.8556L5.90064 15.9046L5.59121 16.8556ZM13.7661 19.5156L13.4567 20.4665L13.9295 20.6204L14.3375 20.3363L13.7661 19.5156ZM1.2095 18.9728L2.1468 19.3213L2.1468 19.3213L1.2095 18.9728ZM3.24083 23.1767L2.93141 24.1277L2.93141 24.1277L3.24083 23.1767ZM9.11832 25.0892L10.0208 25.5199L10.5118 24.491L9.42774 24.1383L9.11832 25.0892ZM10.0739 41.0108L10.9667 41.4611L11.2249 40.9493L10.9137 40.4679L10.0739 41.0108ZM6.87127 47.3597L5.97843 46.9093L5.97843 46.9093L6.87127 47.3597ZM8.76225 52.6389L8.35842 53.5538L8.35842 53.5538L8.76225 52.6389ZM14.3205 50.648L13.4276 50.1976L14.3205 50.648ZM16.5093 46.3088L16.8548 45.3703L16.0181 45.0623L15.6165 45.8584L16.5093 46.3088ZM24.7122 46.1967L25.605 45.7463L25.1925 44.9285L24.3418 45.2679L24.7122 46.1967ZM26.9576 50.648L26.0647 51.0984L26.0647 51.0984L26.9576 50.648ZM32.5158 52.6389L32.1119 51.7241L32.1119 51.7241L32.5158 52.6389ZM34.4068 47.3597L35.2996 46.9093L35.2996 46.9093L34.4068 47.3597ZM31.049 40.7031L30.1963 40.1808L29.9052 40.656L30.1562 41.1535L31.049 40.7031ZM31.7897 25.0449L31.4803 24.094L30.3928 24.4479L30.8886 25.4785L31.7897 25.0449ZM37.5311 23.1767L37.8406 24.1277L37.8406 24.1277L37.5311 23.1767ZM39.5625 18.9728L38.6252 19.3213L38.6252 19.3213L39.5625 18.9728ZM35.1808 16.8556L34.8713 15.9046L34.8713 15.9046L35.1808 16.8556ZM27.1129 19.4808L26.5455 20.3042L26.9524 20.5846L27.4223 20.4317L27.1129 19.4808ZM5.28179 17.8065L13.4567 20.4665L14.0755 18.5647L5.90064 15.9046L5.28179 17.8065ZM2.1468 19.3213C2.60897 18.0783 4.02075 17.3962 5.28179 17.8065L5.90064 15.9046C3.61985 15.1625 1.1081 16.3761 0.272196 18.6243L2.1468 19.3213ZM3.55025 22.2258C2.31996 21.8255 1.6959 20.534 2.1468 19.3213L0.272196 18.6243C-0.574982 20.9027 0.619872 23.3755 2.93141 24.1277L3.55025 22.2258ZM9.42774 24.1383L3.55025 22.2258L2.93141 24.1277L8.8089 26.0401L9.42774 24.1383ZM8.53932 32.194C8.53932 29.7681 9.07863 27.4943 10.0208 25.5199L8.21582 24.6585C7.14465 26.9032 6.53932 29.4714 6.53932 32.194H8.53932ZM10.9137 40.4679C9.42709 38.1679 8.53932 35.3066 8.53932 32.194H6.53932C6.53932 35.6864 7.53542 38.9256 9.23401 41.5536L10.9137 40.4679ZM7.76412 47.8101L10.9667 41.4611L9.18101 40.5604L5.97843 46.9093L7.76412 47.8101ZM9.16608 51.7241C7.63278 51.0473 7.00927 49.3065 7.76412 47.8101L5.97843 46.9093C4.70792 49.4281 5.77764 52.4145 8.35842 53.5538L9.16608 51.7241ZM13.4276 50.1976C12.6547 51.73 10.7362 52.4172 9.16608 51.7241L8.35842 53.5538C10.9024 54.6768 13.9609 53.5812 15.2133 51.0984L13.4276 50.1976ZM15.6165 45.8584L13.4276 50.1976L15.2133 51.0984L17.4021 46.7591L15.6165 45.8584ZM20.4646 46.0156C19.2061 46.0156 17.9938 45.7897 16.8548 45.3703L16.1638 47.2472C17.5181 47.7458 18.964 48.0156 20.4646 48.0156V46.0156ZM24.3418 45.2679C23.1256 45.7529 21.8218 46.0156 20.4646 46.0156V48.0156C22.0834 48.0156 23.6381 47.7017 25.0827 47.1256L24.3418 45.2679ZM27.8504 50.1976L25.605 45.7463L23.8194 46.6471L26.0647 51.0984L27.8504 50.1976ZM32.1119 51.7241C30.5419 52.4172 28.6234 51.73 27.8504 50.1976L26.0647 51.0984C27.3171 53.5812 30.3756 54.6768 32.9196 53.5538L32.1119 51.7241ZM33.5139 47.8101C34.2688 49.3065 33.6452 51.0473 32.1119 51.7241L32.9196 53.5538C35.5004 52.4145 36.5701 49.4281 35.2996 46.9093L33.5139 47.8101ZM30.1562 41.1535L33.5139 47.8101L35.2996 46.9093L31.9418 40.2528L30.1562 41.1535ZM32.3899 32.194C32.3899 35.1782 31.5739 37.9316 30.1963 40.1808L31.9018 41.2254C33.4742 38.6582 34.3899 35.5426 34.3899 32.194H32.3899ZM30.8886 25.4785C31.8431 27.4624 32.3899 29.7511 32.3899 32.194H34.3899C34.3899 29.4523 33.7761 26.8672 32.6909 24.6114L30.8886 25.4785ZM37.2217 22.2258L31.4803 24.094L32.0992 25.9959L37.8406 24.1277L37.2217 22.2258ZM38.6252 19.3213C39.0761 20.534 38.452 21.8255 37.2217 22.2258L37.8406 24.1277C40.1521 23.3755 41.3469 20.9027 40.4998 18.6243L38.6252 19.3213ZM35.4902 17.8065C36.7512 17.3962 38.163 18.0783 38.6252 19.3213L40.4998 18.6243C39.6639 16.3761 37.1521 15.1625 34.8713 15.9046L35.4902 17.8065ZM27.4223 20.4317L35.4902 17.8065L34.8713 15.9046L26.8035 18.5298L27.4223 20.4317ZM20.4646 18.3724C22.6791 18.3724 24.7578 19.0723 26.5455 20.3042L27.6803 18.6573C25.5831 17.2121 23.1128 16.3724 20.4646 16.3724V18.3724ZM14.3375 20.3363C16.1356 19.0844 18.2311 18.3724 20.4646 18.3724V16.3724C17.7935 16.3724 15.3035 17.2267 13.1947 18.6949L14.3375 20.3363Z" fill="black" mask="url(#path-1-outside-1_124_57)"/>
<path d="M27.8165 32.9742C27.8165 37.0284 24.6844 40.275 20.869 40.275C17.0535 40.275 13.9214 37.0284 13.9214 32.9742C13.9214 28.9199 17.0535 25.6733 20.869 25.6733C24.6844 25.6733 27.8165 28.9199 27.8165 32.9742Z" stroke="black"/>
<mask id="path-4-outside-2_124_57" maskUnits="userSpaceOnUse" x="7.47244" y="0" width="27" height="24" fill="black">
<rect fill="white" x="7.47244" width="27" height="24"/>
<path fill-rule="evenodd" clip-rule="evenodd" d="M10.5888 8.25843L9.2355 6.56299C7.97529 4.98423 8.31084 2.78798 9.98496 1.65753C11.6591 0.527074 14.0378 0.890501 15.298 2.46926L16.0955 3.46837C17.3438 2.99317 18.7123 2.73094 20.1473 2.73094C21.7804 2.73094 23.3273 3.07057 24.7091 3.67724L25.6733 2.46926C26.9335 0.890501 29.3122 0.527074 30.9864 1.65753C32.6605 2.78798 32.996 4.98423 31.7358 6.56299L29.9612 8.78622C30.4691 9.92602 30.7492 11.1739 30.7492 12.482C30.7492 17.8674 26.0025 22.2331 20.1473 22.2331C14.2921 22.2331 9.54544 17.8674 9.54544 12.482C9.54544 10.9689 9.92014 9.53632 10.5888 8.25843Z"/>
</mask>
<path fill-rule="evenodd" clip-rule="evenodd" d="M10.5888 8.25843L9.2355 6.56299C7.97529 4.98423 8.31084 2.78798 9.98496 1.65753C11.6591 0.527074 14.0378 0.890501 15.298 2.46926L16.0955 3.46837C17.3438 2.99317 18.7123 2.73094 20.1473 2.73094C21.7804 2.73094 23.3273 3.07057 24.7091 3.67724L25.6733 2.46926C26.9335 0.890501 29.3122 0.527074 30.9864 1.65753C32.6605 2.78798 32.996 4.98423 31.7358 6.56299L29.9612 8.78622C30.4691 9.92602 30.7492 11.1739 30.7492 12.482C30.7492 17.8674 26.0025 22.2331 20.1473 22.2331C14.2921 22.2331 9.54544 17.8674 9.54544 12.482C9.54544 10.9689 9.92014 9.53632 10.5888 8.25843Z" fill="#609CA4"/>
<path d="M10.5888 8.25843L11.4749 8.72208L11.7772 8.14427L11.3704 7.63459L10.5888 8.25843ZM9.2355 6.56299L10.017 5.93914L9.2355 6.56299ZM9.98496 1.65753L10.5446 2.48628L10.5446 2.48628L9.98496 1.65753ZM15.298 2.46926L16.0796 1.84541L16.0796 1.84541L15.298 2.46926ZM16.0955 3.46837L15.314 4.09222L15.7693 4.66259L16.4513 4.40294L16.0955 3.46837ZM24.7091 3.67724L24.307 4.59287L25.011 4.90195L25.4906 4.30109L24.7091 3.67724ZM25.6733 2.46926L26.4548 3.09311L26.4548 3.09311L25.6733 2.46926ZM30.9864 1.65753L30.4267 2.48628L30.4267 2.48628L30.9864 1.65753ZM31.7358 6.56299L30.9543 5.93914L30.9543 5.93914L31.7358 6.56299ZM29.9612 8.78622L29.1796 8.16237L28.8002 8.63772L29.0478 9.19327L29.9612 8.78622ZM11.3704 7.63459L10.017 5.93914L8.45395 7.18684L9.8073 8.88228L11.3704 7.63459ZM10.017 5.93914C9.12097 4.81656 9.35418 3.29009 10.5446 2.48628L9.42534 0.828773C7.26749 2.28586 6.82961 5.1519 8.45395 7.18684L10.017 5.93914ZM10.5446 2.48628C11.7866 1.64761 13.5815 1.92184 14.5165 3.09311L16.0796 1.84541C14.4941 -0.140843 11.5316 -0.59346 9.42534 0.828773L10.5446 2.48628ZM14.5165 3.09311L15.314 4.09222L16.8771 2.84452L16.0796 1.84541L14.5165 3.09311ZM16.4513 4.40294C17.5866 3.97075 18.8345 3.73094 20.1473 3.73094V1.73094C18.59 1.73094 17.101 2.01559 15.7398 2.5338L16.4513 4.40294ZM20.1473 3.73094C21.6412 3.73094 23.0513 4.0415 24.307 4.59287L25.1111 2.76161C23.6034 2.09964 21.9197 1.73094 20.1473 1.73094V3.73094ZM24.8917 1.84541L23.9275 3.05339L25.4906 4.30109L26.4548 3.09311L24.8917 1.84541ZM31.546 0.828774C29.4397 -0.59346 26.4772 -0.140843 24.8917 1.84541L26.4548 3.09311C27.3898 1.92185 29.1847 1.64761 30.4267 2.48628L31.546 0.828774ZM32.5174 7.18684C34.1417 5.1519 33.7038 2.28586 31.546 0.828773L30.4267 2.48628C31.6171 3.29009 31.8504 4.81656 30.9543 5.93914L32.5174 7.18684ZM30.7427 9.41007L32.5174 7.18684L30.9543 5.93914L29.1796 8.16237L30.7427 9.41007ZM29.0478 9.19327C29.5004 10.2089 29.7492 11.3185 29.7492 12.482H31.7492C31.7492 11.0294 31.4379 9.64312 30.8746 8.37917L29.0478 9.19327ZM29.7492 12.482C29.7492 17.238 25.5307 21.2331 20.1473 21.2331V23.2331C26.4744 23.2331 31.7492 18.4967 31.7492 12.482H29.7492ZM20.1473 21.2331C14.7639 21.2331 10.5454 17.238 10.5454 12.482H8.54544C8.54544 18.4967 13.8202 23.2331 20.1473 23.2331V21.2331ZM10.5454 12.482C10.5454 11.1367 10.8781 9.86254 11.4749 8.72208L9.70283 7.79479C8.9622 9.2101 8.54544 10.8012 8.54544 12.482H10.5454Z" fill="black" mask="url(#path-4-outside-2_124_57)"/>
<path d="M26.1548 16.7727C26.1548 17.3444 25.6814 17.9949 24.6124 18.5324C23.5726 19.0552 22.1011 19.393 20.4485 19.393C18.7959 19.393 17.3244 19.0552 16.2846 18.5324C15.2157 17.9949 14.7422 17.3444 14.7422 16.7727C14.7422 16.201 15.2157 15.5504 16.2846 15.013C17.3244 14.4902 18.7959 14.1523 20.4485 14.1523C22.1011 14.1523 23.5726 14.4902 24.6124 15.013C25.6814 15.5504 26.1548 16.201 26.1548 16.7727Z" stroke="black"/>
<ellipse cx="16.311" cy="10.922" rx="1.24126" ry="1.17013" fill="black"/>
<ellipse cx="20.4485" cy="15.6025" rx="1.24126" ry="1.17013" fill="black"/>
<ellipse cx="24.586" cy="10.922" rx="1.24126" ry="1.17013" fill="black"/>
</svg>
