<svg xmlns="http://www.w3.org/2000/svg" viewBox="0 0 242.82 257.5"><defs><style>.cls-1,.cls-2{fill:none;stroke:#000;stroke-miterlimit:10;stroke-width:5px;}.cls-1{stroke-linecap:round;}</style></defs><title>satuan</title><g id="Layer_2" data-name="Layer 2"><g id="Layer_1-2" data-name="Layer 1"><path class="cls-1" d="M105.91,17.5a15,15,0,1,1,15,15v12"/><path class="cls-2" d="M177.61,68.83H159.94c-6.58,12.64-21.56,21.48-39,21.48s-32.42-8.84-39-21.48H65.73a5.81,5.81,0,0,0-3.37,1.09L4.58,111.53a5,5,0,0,0-1.14,7l26.89,37.35a5,5,0,0,0,7,1.14L53.5,145.33a5,5,0,0,1,7.92,4.06V250a5,5,0,0,0,5,5H176.3a5,5,0,0,0,5-5V149.24a5,5,0,0,1,7.94-4l16.07,11.69a5,5,0,0,0,7-1.11l27.07-37.21a5,5,0,0,0-1.1-7L181,69.94A5.78,5.78,0,0,0,177.61,68.83Z"/><path class="cls-2" d="M81.94,68.83c6.58,12.64,21.56,21.48,39,21.48s32.42-8.84,39-21.48h1L121.41,44.5,81.89,68.83Z"/></g></g></svg>