<svg width="62" height="54" viewBox="0 0 62 54" fill="none" xmlns="http://www.w3.org/2000/svg">
<path d="M17.5 9L14.7389 10.2282V53.0629H47.2611V10.2282L44 9H41.4271L42 5.5L37 2L31.7918 1.02466L25 2L20 4.98144L20.5 9H17.5ZM57.7857 26.6297L47.2611 23.4154V10.2282L61 16.6568L57.7857 26.6297Z" fill="#609CA4"/>
<path d="M41.4271 4.98148C41.4271 4.98148 44.0532 7.58505 36.3839 17.0704L32.9457 11.5365L37.7725 6.34434L40.2582 3.49219L41.4271 4.98148ZM21.8254 3.39148L23.9768 6.33684L28.8111 11.5365L25.3729 17.0704C17.7036 7.58398 20.3296 4.98148 20.3296 4.98148" fill="#609CA4"/>
<path d="M4.21429 26.6297L14.7389 23.4154V10.2283L1 16.6568L4.21429 26.6297Z" fill="#609CA4"/>
<path d="M44.185 9.3915L47.2611 10.2283V53.0629H14.7389V10.2283L17.6211 9.30579L44.185 9.3915ZM57.7857 26.6297L47.2611 23.4154V10.2283L61 16.6569L57.7857 26.6297ZM4.21429 26.6297L14.7389 23.4154V10.2283L1 16.6569L4.21429 26.6297Z" stroke="black" stroke-miterlimit="10" stroke-linecap="round" stroke-linejoin="round"/>
<path d="M20 9L21 6.5H24L27.5 10.5L22 11.5L20 9Z" fill="#609CA4"/>
<path d="M20 9L21 6.5H24L27.5 10.5L22 11.5L20 9Z" fill="#609CA4"/>
<path d="M20 9L21 6.5H24L27.5 10.5L22 11.5L20 9Z" fill="#609CA4"/>
<path d="M41.5 8.5L40.5 6H37.5L34 10L39.5 11L41.5 8.5Z" fill="#609CA4"/>
<path d="M41.5 8.5L40.5 6H37.5L34 10L39.5 11L41.5 8.5Z" fill="#609CA4"/>
<path d="M41.5 8.5L40.5 6H37.5L34 10L39.5 11L41.5 8.5Z" fill="#609CA4"/>
<path d="M37.7736 6.34429L32.9457 11.5364L36.3839 17.0704C44.0532 7.58393 41.4271 4.98143 41.4271 4.98143C30.2382 -3.97679 20.3307 4.98143 20.3307 4.98143C20.3307 4.98143 17.7036 7.585 25.3729 17.0704L28.8121 11.5364L23.9768 6.33679" stroke="black" stroke-miterlimit="10" stroke-linecap="round" stroke-linejoin="round"/>
<path d="M30.8789 17.2C31.3837 17.2 31.7929 16.7909 31.7929 16.2861C31.7929 15.7814 31.3837 15.3722 30.8789 15.3722C30.3742 15.3722 29.965 15.7814 29.965 16.2861C29.965 16.7909 30.3742 17.2 30.8789 17.2Z" fill="black"/>
<path d="M30.8789 20.7004C31.3837 20.7004 31.7929 20.2912 31.7929 19.7865C31.7929 19.2817 31.3837 18.8726 30.8789 18.8726C30.3742 18.8726 29.965 19.2817 29.965 19.7865C29.965 20.2912 30.3742 20.7004 30.8789 20.7004Z" fill="black"/>
<path d="M30.8789 24.1997C31.3837 24.1997 31.7929 23.7905 31.7929 23.2858C31.7929 22.781 31.3837 22.3718 30.8789 22.3718C30.3742 22.3718 29.965 22.781 29.965 23.2858C29.965 23.7905 30.3742 24.1997 30.8789 24.1997Z" fill="black"/>
</svg>
