<svg xmlns="http://www.w3.org/2000/svg" viewBox="0 0 198.1 87.61"><defs><style>.cls-1{fill:none;stroke:#000;stroke-miterlimit:10;stroke-width:5px;}</style></defs><title>shoe</title><g id="Layer_2" data-name="Layer 2"><g id="Layer_1-2" data-name="Layer 1"><path class="cls-1" d="M2.5,33V77a5,5,0,0,0,5,5h33a5,5,0,0,0,5-5V76a5,5,0,0,1,6-4.91l57,11.12a89.5,89.5,0,0,0,44.17.19l38.17-9.55a6.34,6.34,0,0,0,4.13-9h0a15.87,15.87,0,0,0-10.33-8.24L138.24,44a16.39,16.39,0,0,1-4.88-2.1L72.5,3,47.76,18.71a16.66,16.66,0,0,1-16.87.59L15.5,11h-8a5,5,0,0,0-5,5Z"/><path class="cls-1" d="M110.44,72.75a89.5,89.5,0,0,0,44.17.19l38.17-9.55"/><path class="cls-1" d="M3,60l44.5.5,62.94,12.28"/></g></g></svg>