<svg width="63" height="44" viewBox="0 0 63 44" fill="none" xmlns="http://www.w3.org/2000/svg">
<path d="M8.50769 26V7.63265V1H11.1343C13.0312 3.21088 17.438 7.63265 19.8895 7.63265C22.3409 7.63265 29.0824 3.21088 32.1467 1L44.8418 10.1837C47.9061 11.5442 54.9103 14.2653 58.4124 14.2653C61.9145 14.2653 62.2063 17.6667 61.9144 19.3673C57.6828 21.5782 48.3439 26 44.8418 26C41.3397 26 27.9151 23.7109 21.6405 21.5V26H8.50769Z" fill="#609CA4" stroke="black"/>
<path d="M8.50769 18.5H21.8808C27.8244 20.1667 43.0102 23.9 45.5065 23.5C48.0028 23.1 56.7994 18.6667 62 16.5" stroke="black"/>
<path d="M1 43V24.6327V18H3.62656C5.52352 20.2109 9.93031 24.6327 12.3818 24.6327C14.8332 24.6327 21.5747 20.2109 24.6391 18L37.3341 27.1837C40.3984 28.5442 47.4026 31.2653 50.9047 31.2653C54.4068 31.2653 54.6986 34.6667 54.4068 36.3673C50.1751 38.5782 40.8362 43 37.3341 43C33.832 43 20.4074 40.7109 14.1328 38.5V43H1Z" fill="#609CA4" stroke="black"/>
<path d="M1 35.5H14.3731C20.3167 37.1667 35.5025 40.9 37.9988 40.5C40.4952 40.1 49.2917 35.6667 54.4923 33.5" stroke="black"/>
</svg>
