<svg xmlns="http://www.w3.org/2000/svg" viewBox="0 0 242.82 191.17"><defs><style>.cls-1{fill:none;stroke:#000;stroke-miterlimit:10;stroke-width:5px;}</style></defs><title>tee</title><g id="Layer_2" data-name="Layer 2"><g id="Layer_1-2" data-name="Layer 1"><path class="cls-1" d="M179.49,2.5H159.94C153.36,15.14,138.38,24,120.94,24s-32.42-8.83-39-21.47H63.87L4.58,45.19a5,5,0,0,0-1.14,7L30.33,89.51a5,5,0,0,0,7,1.14L53.5,79a5,5,0,0,1,7.92,4V183.67a5,5,0,0,0,5,5H176.3a5,5,0,0,0,5-5V82.91a5,5,0,0,1,7.94-4l16.07,11.69a5,5,0,0,0,7-1.1l27.07-37.22a5,5,0,0,0-1.1-7Z"/></g></g></svg>